<svg xmlns="http://www.w3.org/2000/svg" viewBox="0 0 225.91 160"><defs><style>.cls-1{fill:#f2f2f2;}.cls-2{fill:#fff;}.cls-3{fill:#2f2e41;}.cls-4{fill:#3f3d56;}.cls-5{fill:#f9b225;}.cls-6{fill:#e6e6e6;}.cls-7{fill:#ffb6b6;}.cls-8{fill:#3f3d3b;}.cls-9{fill:#ffb8b8;}.cls-10{fill:#d11149;}.cls-11{fill:#cacaca;}</style></defs><title>icono_registra</title><g id="Capa_2" data-name="Capa 2"><g id="Capa_1-2" data-name="Capa 1"><path id="bfbd69ed-0a30-4239-a70d-8568b89194ba-641" class="cls-1" d="M192.08,125.46l-.17-.22-.17-.22-.17-.22-.16-.22c-.1-2.15-.1-4.27,0-6.38s.27-4.15.53-6.2.62-4,1-6,.94-3.86,1.54-5.73l.21-.65.21-.64c.08-.21.15-.42.22-.63s.16-.42.23-.63q.87-2.35,1.9-4.58t2.22-4.32c.79-1.38,1.63-2.73,2.52-4s1.82-2.54,2.81-3.74l.15-.19.16-.18.15-.19.16-.19.11-.13.12-.13.11-.13.12-.13.09,0,.09,0,.1,0,.09-.06h0l0,0,0,0,0,0,0,0,.16-.08.16-.09.16-.08.16-.09L207,79.1l-.31-.15h0l.08,0,.08,0,.08,0,.07,0,0,0h.06l0,0h.11c1.11.51,2.22,1,3.32,1.57s2.18,1.1,3.23,1.71a33.73,33.73,0,0,1,3.05,2,25.59,25.59,0,0,1,2.77,2.32A18.59,18.59,0,0,1,222,89.7a16.28,16.28,0,0,1,1.71,3.35,12.3,12.3,0,0,1,.75,3.5,8.69,8.69,0,0,1-.48,3.39c-.05.14-.11.28-.17.42s-.12.27-.19.4-.14.27-.22.4a4,4,0,0,1-.24.38l-.1.15-.11.15-.12.15-.11.15A7.82,7.82,0,0,1,220,104.3a8.72,8.72,0,0,1-3.37.84,10,10,0,0,1-3.63-.53,11,11,0,0,1-3.43-1.92,11.87,11.87,0,0,1-1.86-2,10.85,10.85,0,0,1-.72-1.13,8.78,8.78,0,0,1-.57-1.2,9,9,0,0,0,.59,3.77,14,14,0,0,0,2,3.52,25.71,25.71,0,0,0,2.87,3.21c1,1,2.16,2,3.26,2.82s2.24,1.75,3.35,2.68a37.56,37.56,0,0,1,3.14,2.91,19.7,19.7,0,0,1,2.54,3.28,12.49,12.49,0,0,1,1.52,3.77,9.76,9.76,0,0,1-.05,4.4,10.76,10.76,0,0,1-.72,2,11.8,11.8,0,0,1-1.11,1.87l0,0,0,.06-.05.05,0,.05a12.76,12.76,0,0,1-3.87,3.37,13.3,13.3,0,0,1-5,1.6,17.05,17.05,0,0,1-5-.29,22.77,22.77,0,0,1-4.94-1.65,30.48,30.48,0,0,1-4.65-2.71,37.46,37.46,0,0,1-4.19-3.45c-.35-.34-.69-.67-1-1s-.66-.69-1-1.05-.64-.71-.95-1.08S192.38,125.84,192.08,125.46Z"/><path id="a2347809-d406-465d-97ee-6d57ebf46a78-642" class="cls-2" d="M219.15,100.62a24.36,24.36,0,0,1-3-1.84,24.24,24.24,0,0,1-7-7.72A22.28,22.28,0,0,1,207,85.71a19.5,19.5,0,0,1-.53-2.74,17.78,17.78,0,0,1-.15-2.73v-.15a.81.81,0,0,1,0-.16v-.3l-.13.1-.13.11-.13.1-.13.11-.08.07-.09.07-.08.07-.08.07.11-.13.12-.14.11-.13.12-.13.09,0,.1,0,.09,0,.09-.05h0l0,0,0,0,0,0,0,0,.16-.08.16-.09.16-.08.16-.09L207,79.1l-.3-.15h0l.08,0,.08,0,.07,0,.08,0,0,0h.06l0,0v.18a18.66,18.66,0,0,0,.24,4.6,20.72,20.72,0,0,0,1.36,4.55,23.39,23.39,0,0,0,2.41,4.28,24.36,24.36,0,0,0,3.38,3.79,24.12,24.12,0,0,0,6.37,4.11,23.44,23.44,0,0,0,2.34.88l-.11.15-.11.15-.12.15-.11.15c-.31-.1-.61-.21-.91-.33s-.61-.23-.91-.36-.6-.26-.89-.4Z"/><path id="fd435d97-ab67-4bbc-9247-61e184ba81ed-643" class="cls-2" d="M198.55,112.11c-.34-.5-.66-1-1-1.55s-.59-1.06-.85-1.6-.51-1.1-.73-1.65-.42-1.12-.6-1.68c-.1-.3-.18-.61-.26-.91s-.15-.6-.21-.91-.12-.6-.17-.91-.09-.61-.12-.91c0-.14,0-.28-.05-.43s0-.28,0-.42,0-.29,0-.43,0-.28,0-.42l.21-.65.21-.64.22-.63.23-.63c0,.17,0,.35,0,.52l0,.53c0,.18,0,.36,0,.54a4.68,4.68,0,0,0,0,.53v.29c0,.1,0,.2,0,.3s0,.19,0,.29,0,.19,0,.29a17.77,17.77,0,0,0,.51,3.24,21.55,21.55,0,0,0,1,3.15,26.79,26.79,0,0,0,1.52,3,34,34,0,0,0,1.89,2.88c.74,1,1.52,2,2.34,2.91s1.68,1.86,2.56,2.76,1.79,1.75,2.73,2.59,1.89,1.64,2.86,2.42,2,1.57,3,2.31,2.08,1.45,3.14,2.12,2.15,1.32,3.24,1.92,2.21,1.19,3.33,1.72a.52.52,0,0,1,.23.25.75.75,0,0,1,0,.16.88.88,0,0,1,0,.16l0,.07,0,.05s0,0-.05,0l-.06,0-.06,0h-.07l-.07,0a.11.11,0,0,1-.07,0l-.41-.2-.42-.2-.41-.2-.41-.21c-1.15-.59-2.27-1.21-3.39-1.87s-2.2-1.35-3.28-2.07-2.14-1.49-3.18-2.28-2.05-1.61-3.05-2.47-1.91-1.67-2.84-2.55-1.83-1.78-2.7-2.72-1.7-1.9-2.49-2.89S199.24,113.17,198.55,112.11Z"/><path id="e3ba7b84-95ab-4be0-b084-77760c6da15d-644" class="cls-3" d="M220.08,30.47l-.82.1L224.74,10a8.79,8.79,0,0,0,.2-4.23,5.59,5.59,0,0,0-1.71-3A6.35,6.35,0,0,0,220,1.27a11.05,11.05,0,0,0-4.36.2h0L178.37,10a13.13,13.13,0,0,0-3.7,1.52,19.56,19.56,0,0,0-3.46,2.62,20.73,20.73,0,0,0-2.89,3.38,16.77,16.77,0,0,0-2,3.82h0l-39,107.33A22.3,22.3,0,0,0,126,134.1a16.65,16.65,0,0,0,.24,5A10.21,10.21,0,0,0,128,143a6.34,6.34,0,0,0,3.09,2.33h0l39.4,13.57a10.27,10.27,0,0,0,5.44.32,13.72,13.72,0,0,0,5.33-2.45,19.11,19.11,0,0,0,4.5-4.82,22.92,22.92,0,0,0,3-6.65h0L215.1,46.18l.83-.06Z"/><path id="b5993d63-c6a8-428b-8f96-914fd0c3ef98-645" class="cls-4" d="M217.23,29.33l-.82.1,5.48-20.59a8.92,8.92,0,0,0,.2-4.23,5.65,5.65,0,0,0-1.71-3A6.35,6.35,0,0,0,217.17.13a11,11,0,0,0-4.36.2h0L175.52,8.82a13,13,0,0,0-3.7,1.52A19.2,19.2,0,0,0,168.36,13a20.73,20.73,0,0,0-2.89,3.38,16.77,16.77,0,0,0-2,3.82h0l-39,107.33a22.3,22.3,0,0,0-1.26,5.47,16.65,16.65,0,0,0,.24,5,10.21,10.21,0,0,0,1.69,3.95,6.34,6.34,0,0,0,3.09,2.33h0l39.4,13.57a10.27,10.27,0,0,0,5.44.32,13.72,13.72,0,0,0,5.33-2.45,19.11,19.11,0,0,0,4.5-4.82,22.92,22.92,0,0,0,3-6.65h0L212.25,45l.83-.06Z"/><path id="f76bb9a3-d246-4a39-a954-55c4fdcd575d-646" class="cls-2" d="M212.48,3,207,4.21a3.2,3.2,0,0,1-.14,1.41,6,6,0,0,1-.73,1.5,8,8,0,0,1-2.78,2.49c-.13.07-.26.14-.4.2l-.39.16-.4.13a2.34,2.34,0,0,1-.38.09l-21.43,4.35a2.6,2.6,0,0,1-1.21,0,1.42,1.42,0,0,1-.8-.54,1.72,1.72,0,0,1-.32-1,3.4,3.4,0,0,1,.2-1.3c0-.11.08-.22.13-.33s.1-.23.16-.35l.19-.34c.06-.11.14-.22.21-.33l-4.06.89a9.27,9.27,0,0,0-2.77,1.12,13.55,13.55,0,0,0-2.61,2,15.61,15.61,0,0,0-2.19,2.54,12.93,12.93,0,0,0-1.5,2.88L126.83,128a16.69,16.69,0,0,0-.92,4.13,12.23,12.23,0,0,0,.21,3.72,7.36,7.36,0,0,0,1.29,2.93,4.76,4.76,0,0,0,2.33,1.69h0l39.69,12.89a7.74,7.74,0,0,0,4,.19,10.34,10.34,0,0,0,3.94-1.85,14.19,14.19,0,0,0,3.31-3.56,16.73,16.73,0,0,0,2.19-4.9h0L219.19,9.44a6.72,6.72,0,0,0,.17-3.15,4.18,4.18,0,0,0-1.25-2.24,4.71,4.71,0,0,0-2.37-1.15A8.32,8.32,0,0,0,212.48,3Z"/><path class="cls-2" d="M191.19,54.28h-79V27.53h79Z"/><rect class="cls-2" x="90.72" y="63.73" width="77.39" height="37.51"/><circle class="cls-5" cx="103.29" cy="76.14" r="5.6"/><path class="cls-6" d="M116.22,72.41a.94.94,0,0,0,0,1.87h44a.94.94,0,1,0,0-1.87Z"/><path class="cls-6" d="M116.22,78a.94.94,0,0,0,0,1.87h18.93a.94.94,0,0,0,0-1.87Z"/><path class="cls-6" d="M99,87c-.71,0-1.29.42-1.29.93s.58.94,1.29.94h60.68c.71,0,1.29-.42,1.29-.94s-.58-.93-1.29-.93Z"/><path class="cls-6" d="M99,92.56c-.71,0-1.29.42-1.29.93s.58.93,1.29.93h46.71c.71,0,1.29-.42,1.29-.93s-.58-.93-1.29-.93Z"/><path class="cls-6" d="M168.9,102h-79V62.94h79Zm-77.39-1.58h75.81V64.52H91.51Z"/><circle class="cls-5" cx="125.59" cy="40.73" r="5.6"/><path class="cls-6" d="M138.52,37a.93.93,0,0,0,0,1.86h44a.93.93,0,1,0,0-1.86Z"/><path class="cls-6" d="M138.52,42.6a.93.93,0,0,0,0,1.86h34.6a.93.93,0,1,0,0-1.86Z"/><path class="cls-6" d="M191.19,54.28h-79V27.53h79Zm-77.38-1.57h75.81V29.1H113.81Z"/><polygon class="cls-7" points="47.64 155.84 51.62 155.84 53.51 140.49 47.63 140.49 47.64 155.84"/><path class="cls-8" d="M59.29,159.54H46.78v-4.83h8.27A4.24,4.24,0,0,1,59.29,159v.59Z"/><polygon class="cls-7" points="7.83 150.69 11.32 152.6 20.38 140.06 15.23 137.23 7.83 150.69"/><path class="cls-8" d="M16.27,159.54l-11-6h0l2.32-4.23h0l7.25,4A4.24,4.24,0,0,1,16.55,159l-.28.52Z"/><path class="cls-8" d="M47.45,147.32A1.47,1.47,0,0,1,46,146.05l-5-38.36a.8.8,0,0,0-.9-.7.81.81,0,0,0-.61.41L18.76,145a1.46,1.46,0,0,1-1.8.66L12.44,144a1.46,1.46,0,0,1-.84-1.89v0L26,106.76a.89.89,0,0,0,.07-.28C28,91.41,33,83.75,34.42,81.76a1.11,1.11,0,0,0,.16-1l-.2-.6a1.49,1.49,0,0,1,.28-1.43C40,72.67,49.21,76,49.3,76l.05,0,0,0c10.36,14.21,6.53,60.37,5.65,69.48a1.46,1.46,0,0,1-1.34,1.32l-6.13.47Z"/><circle class="cls-9" cx="44.64" cy="31.88" r="8.86"/><path class="cls-10" d="M31,88.24,57,90.62C54.74,82.71,52.66,74.84,54.35,67c2.16-7,2.36-10.88-3.33-14.18l-3.83-8.56L40.24,44l-3.39-.93a22.28,22.28,0,0,0-3.17,14.75C35.16,69,34.76,79.35,31,88.24Z"/><path class="cls-3" d="M34.9,48.72l-2.62-12a18.28,18.28,0,0,1,.4-8.57,6.59,6.59,0,0,1,.32-.84,9.63,9.63,0,0,1,8.15-5.59c6-.41,6.83.22,7.05.53,3.36-.14,6,1.16,7.17,3.57a1.82,1.82,0,0,1-.84,2.43,1.88,1.88,0,0,1-.3.12,17.57,17.57,0,0,1-5.76.85C45,33.4,46.39,41.13,50,45.73l.14.18-3.53.73-4.11-5.72a.61.61,0,0,0-1.09.48l1.25,6.05Z"/><polygon class="cls-11" points="225 160 0 160 0 159.38 225.11 159.38 225 160"/><path class="cls-2" d="M85.53,81.12,21.06,126.71,5.61,104.86,70.08,59.27Z"/><circle class="cls-5" cx="24.15" cy="107.93" r="5.6" transform="translate(-57.88 33.75) rotate(-35.27)"/><path class="cls-6" d="M32.55,97.42a.93.93,0,0,0-.22,1.3.92.92,0,0,0,1.29.22L69.53,73.55A.93.93,0,0,0,68.46,72Z"/><path class="cls-6" d="M35.78,102a.94.94,0,0,0-.23,1.3.93.93,0,0,0,1.3.22h0l28.25-20A.93.93,0,1,0,64,82Z"/><path class="cls-6" d="M85.53,81.12,21.06,126.71,5.61,104.86,70.08,59.27Zm-64.09,43.4,61.9-43.78L69.71,61.47,7.81,105.24Z"/><path id="ecbdc040-0b9a-4be9-8952-5ef77de340c4-647" class="cls-1" d="M221.15,73.39a1.53,1.53,0,0,1,.67.12,1.62,1.62,0,0,1,.54.35,1.66,1.66,0,0,1,.46,1.23,1.83,1.83,0,0,1-.16.69,1.87,1.87,0,0,1-1,1,1.81,1.81,0,0,1-.68.15,1.53,1.53,0,0,1-.67-.12,1.6,1.6,0,0,1-.54-.36,1.46,1.46,0,0,1-.34-.54,1.6,1.6,0,0,1-.11-.68,1.74,1.74,0,0,1,.16-.68,2.06,2.06,0,0,1,.39-.57,1.84,1.84,0,0,1,1.24-.55Z"/><path class="cls-9" d="M51.49,95.25,47.3,72.33l.29-14.17-9.45-.3,1.78,16L46,95.92a4,4,0,1,0,5.62-.55l-.16-.12Z"/><path class="cls-10" d="M37.55,59.34a14.87,14.87,0,0,1,10.63,0l-.59-11.81a4.72,4.72,0,0,0-4.72-4.73h0a4.73,4.73,0,0,0-4.73,4.73h0Z"/></g></g></svg>