<svg xmlns="http://www.w3.org/2000/svg" viewBox="0 0 34.01 35.46"><defs><style>.cls-1{fill:#3d3d3d;}</style></defs><title>icono_gato</title><g id="Capa_2" data-name="Capa 2"><g id="Capa_1-2" data-name="Capa 1"><path class="cls-1" d="M9.17,0c.33.06.46.31.55.6A4.7,4.7,0,0,1,9.87,2a18.54,18.54,0,0,1-.2,2.46l-.12.82a.09.09,0,0,0,0,.07,5.25,5.25,0,0,1,.33.49,12,12,0,0,1,.66,1.62.2.2,0,0,0,.11.14,3.76,3.76,0,0,1,.93.71,5.28,5.28,0,0,1,.78.92l0,.07a1.76,1.76,0,0,0,.67.78c.34.26.68.5,1,.75a.59.59,0,0,0,.14.06,11,11,0,0,1,3.1,1.34,8.69,8.69,0,0,1,3.37,4A11.38,11.38,0,0,1,21.51,19a17.26,17.26,0,0,1,.15,3.8,22.3,22.3,0,0,1-.81,4.59.42.42,0,0,0,0,.06l.62-.11a16.12,16.12,0,0,1,3.1-.22,15.58,15.58,0,0,1,5.61,1.12A9.78,9.78,0,0,1,33.1,30a3,3,0,0,1,.68.78,1.59,1.59,0,0,1-.06,1.74,3.94,3.94,0,0,1-1.09,1.1,10.54,10.54,0,0,1-3.25,1.49,8,8,0,0,1-2.34.34,3,3,0,0,1-1.28-.26l-.13-.08a.52.52,0,0,1-.21-.63,1.6,1.6,0,0,1,.34-.54.94.94,0,0,1,.79-.43,16.76,16.76,0,0,0,2.88-.77,3.85,3.85,0,0,0,1.05-.58l.13-.13a.61.61,0,0,0,0-.89,2.43,2.43,0,0,0-.85-.6A6.48,6.48,0,0,0,28,30a13.06,13.06,0,0,0-2.58-.16,13.08,13.08,0,0,0-3.41.5,7.16,7.16,0,0,0-1.18.49,4.65,4.65,0,0,1-1.93.57,3.09,3.09,0,0,1-1.71-.33.14.14,0,0,0-.11,0c-.71.17-1.42.35-2.14.5a13.21,13.21,0,0,1-3.07.36,3.31,3.31,0,0,1-.77-.09,1.36,1.36,0,0,1-1-.89,1.3,1.3,0,0,1,0-.87.73.73,0,0,0,.05-.12l-.59-.1-.4-.07c-.07,0-.11,0-.14.07a2.63,2.63,0,0,1-.49.82,3.25,3.25,0,0,1-1.15.86,2.37,2.37,0,0,1-1.32.07,8.19,8.19,0,0,1-.81-.23.85.85,0,0,1-.57-.68c0-.12,0-.24-.06-.36a.15.15,0,0,0-.06-.09c-.13-.1-.28-.18-.4-.29a.67.67,0,0,1-.17-.74,1.64,1.64,0,0,1,.24-.43A1.92,1.92,0,0,1,5,28.23a.45.45,0,0,0,.25-.29,7.94,7.94,0,0,0,.18-1,38.86,38.86,0,0,0,.12-4.83c0-.21,0-.42,0-.63A1.66,1.66,0,0,0,5.5,21c-.22-.51-.44-1-.68-1.51-.5-1-1-2-1.52-3A4.91,4.91,0,0,1,2.82,15a4.26,4.26,0,0,1,0-1.07,2.31,2.31,0,0,0-.13-1c-.1-.29-.21-.59-.32-.88a.64.64,0,0,0-.13-.19,9.3,9.3,0,0,1-1.54-2,4.91,4.91,0,0,1-.67-2A3.64,3.64,0,0,1,.7,5.24a.15.15,0,0,0,0-.11C.6,4.4.46,3.67.34,2.94A8.52,8.52,0,0,1,.19,1.05,1,1,0,0,1,.44.36.28.28,0,0,1,.78.27a2.86,2.86,0,0,1,.47.22A11.44,11.44,0,0,1,2.66,1.57l1,.86a.73.73,0,0,0,.56.21l1.08,0,1.41-.12a.14.14,0,0,0,.14-.09A8.87,8.87,0,0,1,8.05.66,3.06,3.06,0,0,1,8.42.31,1.3,1.3,0,0,1,9,0Z"/></g></g></svg>