<svg xmlns="http://www.w3.org/2000/svg" viewBox="0 0 35.55 28.41"><defs><style>.cls-1{fill:#3d3d3d;}</style></defs><title>icono_pajaro</title><g id="Capa_2" data-name="Capa 2"><g id="Capa_1-2" data-name="Capa 1"><path class="cls-1" d="M22.73,28.41a6.61,6.61,0,0,0,0-1.06,1.06,1.06,0,0,0-1.53-1l-2.47.77c.11-.89.95-1,1.76-1.43L20,25.31l.64.06c.26-.5-.36-1.56-.95-1.7a9.25,9.25,0,0,1-1.19-.48,3.57,3.57,0,0,0-.57-.1,5.21,5.21,0,0,1-1.33-.17c-.32-.12-.55-.49-.77-.8a7,7,0,0,0-4.58.3c-.91.39-1.94.5-2.9.8a3.17,3.17,0,0,0-1,.61c-.73.58-1.39,1.25-2.15,1.78A2.73,2.73,0,0,1,2,25.69c-.11-.07-.24-.2-.32-.18-.66.21-1-.17-1.33-.62-.53-.65-.56-1.06.15-1.54a14.22,14.22,0,0,1,2-1.1,12.26,12.26,0,0,0,5.25-4.69c1.62-2.48,3.54-4.78,5.31-7.16.72-1,1.6-1.79,2.29-2.82s2-1.64,3-2.45a5.19,5.19,0,0,0,1-.91,10.79,10.79,0,0,1,2.23-2.3c.8-.6,1.7-.95,2.52-1.48.33-.21.86-.08,1.23-.25a4.84,4.84,0,0,1,2.42,0A2.89,2.89,0,0,1,29.3.91c.59.5,1,1.16,1.58,1.72a.82.82,0,0,0,.55.17c1,.1,2.06.16,3.08.28a4.35,4.35,0,0,1,1,.44c-1.19.36-2.16.66-3.14.94-.8.23-1.31.6-1.31,1.56a7.19,7.19,0,0,1-.42,1.59,2.21,2.21,0,0,0-.11.8,13.24,13.24,0,0,1-2.38,9.23A29,29,0,0,1,26,20.4a5.93,5.93,0,0,1-1.46.84c-.31.19-.6.41-.92.59-.7.4-1.42.77-2.12,1.17-.94.54-.92,1.32,0,1.95A5.82,5.82,0,0,1,22.78,26C23.43,26.78,23.4,27.44,22.73,28.41Z"/></g></g></svg>