<svg xmlns="http://www.w3.org/2000/svg" viewBox="0 0 409.13 361.27"><defs><style>.cls-1{fill:#3d3d3d;}</style></defs><title>corazon_icono</title><g id="Capa_2" data-name="Capa 2"><g id="Capa_1-2" data-name="Capa 1"><path class="cls-1" d="M409.13,108.86v16.77a34,34,0,0,0-.61,3.47c-1.55,19.55-7.76,37.62-17.3,54.64-12,21.44-27.89,39.87-45.25,57C303.89,282.3,257.59,319.1,213.1,358c-5.27,4.6-11.59,4.32-17.07-.24-4.61-3.83-9.13-7.76-13.64-11.7-35.75-31.25-71.84-62.14-107.13-93.91-21.88-19.7-41.9-41.38-56.37-67.36C-5.43,141.1-6.73,96.79,17.7,52.87,31.25,28.54,52.15,12.21,79.13,4.58c28.77-8.14,56.35-5.21,82,10.89,16.33,10.24,28.77,24.29,39,40.48,1.51,2.39,3,4.8,4.06,6.55,7.73-10,14.5-20.46,23-29.31C257,2,293.35-7.52,334.28,6c38.52,12.7,60.85,41.18,70.81,79.81C407,93.31,407.81,101.16,409.13,108.86Z"/></g></g></svg>