<svg fill="#f9b225" version="1.1" id="Capa_1" xmlns="http://www.w3.org/2000/svg" xmlns:xlink="http://www.w3.org/1999/xlink" x="0px" y="0px"
	 width="20px" height="20px" viewBox="0 0 458.089 458.089" style="enable-background:new 0 0 458.089 458.089;"
	 xml:space="preserve">
<g>
	<g>
		<path
		d="M236.738,211.342c-6.487,0-11.866,2.237-16.446,6.838c-4.017,4.04-6.223,8.668-6.706,14.09l33.521-18.596
			C243.994,212.11,240.566,211.342,236.738,211.342z"/>
		<path d="M323.155,211.342c-6.488,0-11.867,2.237-16.447,6.838c-3.844,3.867-6.031,8.273-6.634,13.397l33.278-17.988
			C330.284,212.082,326.913,211.342,323.155,211.342z"/>
		<path d="M427.666,266.123c14.26-9.203,30.422-19.635,30.422-37.079c0-17.445-16.162-27.875-30.422-37.079
			c-4.9-3.163-13.85-8.94-15.918-11.971c0.156-3.817,5.426-14.132,8.008-19.189c7.576-14.827,16.16-31.631,7.66-46.324
			c-8.592-14.85-27.598-15.796-44.365-16.632c-5.99-0.298-16.947-0.844-20.276-2.536c-1.691-3.33-2.236-14.286-2.535-20.277
			c-0.836-16.768-1.783-35.772-16.633-44.364c-4.021-2.326-8.595-3.506-13.593-3.506c-10.879,0-21.987,5.676-32.731,11.165
			c-6.404,3.271-15.101,7.714-19.218,7.99c-3.037-2.104-8.789-11.014-11.94-15.899C256.92,16.162,246.488,0,229.045,0
			c-17.445,0-27.877,16.162-37.08,30.421c-3.156,4.891-8.916,13.814-11.951,15.906c-4.014-0.233-12.77-4.707-19.209-7.996
			c-10.742-5.489-21.852-11.165-32.73-11.165c-4.998,0-9.572,1.18-13.592,3.506c-14.85,8.591-15.797,27.596-16.633,44.364
			c-0.297,5.992-0.844,16.948-2.535,20.278c-3.33,1.691-14.285,2.237-20.277,2.536c-16.768,0.835-35.771,1.782-44.363,16.631
			c-8.502,14.693,0.084,31.498,7.658,46.325c2.582,5.056,7.854,15.372,8.008,19.189c-2.066,3.031-11.018,8.808-15.918,11.971
			c-14.26,9.203-30.422,19.634-30.422,37.079c0,17.445,16.162,27.875,30.422,37.079c4.9,3.163,13.852,8.94,15.918,11.971
			c-0.154,3.817-5.426,14.134-8.008,19.189c-7.576,14.825-16.16,31.63-7.66,46.323c8.592,14.85,27.598,15.795,44.365,16.631
			c5.99,0.299,16.947,0.845,20.277,2.537c1.691,3.33,2.236,14.285,2.535,20.277c0.836,16.768,1.781,35.772,16.633,44.364
			c4.02,2.327,8.594,3.506,13.592,3.506c10.879-0.001,21.988-5.676,32.73-11.165c6.404-3.271,15.1-7.714,19.217-7.99
			c3.039,2.104,8.791,11.015,11.943,15.9c9.203,14.259,19.635,30.421,37.08,30.421c17.442,0,27.875-16.162,37.078-30.421
			c3.155-4.891,8.916-13.814,11.95-15.906c4.015,0.233,12.771,4.707,19.212,7.996c10.742,5.488,21.852,11.164,32.729,11.164
			c4.998,0,9.57-1.18,13.593-3.506c14.85-8.592,15.795-27.596,16.631-44.364c0.299-5.991,0.844-16.946,2.535-20.276
			c3.329-1.691,14.284-2.237,20.276-2.537c16.769-0.834,35.773-1.781,44.365-16.631c8.5-14.693-0.084-31.498-7.66-46.324
			c-2.582-5.057-7.852-15.373-8.008-19.189C413.815,275.062,422.765,269.286,427.666,266.123z M142.831,159.675
			c0,5.129-4.159,9.287-9.287,9.287h-3.16c-4.897,0-8.842,1.8-11.727,5.349c-3.054,3.76-4.602,7.399-4.602,10.815v6.27h14.461
			c5.129,0,9.287,4.158,9.287,9.288v2.197c0,5.129-4.158,9.287-9.287,9.287h-14.461v56.344c0,5.131-4.16,9.288-9.288,9.288h-2.526
			c-5.129,0-9.287-4.157-9.287-9.288v-81.076c0-11.574,3.468-21.033,10.31-28.113c6.865-7.111,15.991-10.718,27.12-10.718h3.16
			c5.128,0,9.287,4.158,9.287,9.287V159.675L142.831,159.675z M187.252,210.56c-7.096,0.346-12.326,2.816-15.986,7.551
			c-4.102,5.304-6.181,11.6-6.181,18.711v31.688c0,5.13-4.159,9.288-9.287,9.288h-2.526c-5.127,0-9.283-4.152-9.287-9.279
			l-0.06-67.828c-0.002-2.465,0.975-4.829,2.718-6.572c1.741-1.744,4.104-2.724,6.569-2.724h2.586c4.222,0,7.786,2.817,8.915,6.676
			c6.612-4.924,13.797-7.686,21.432-8.225c2.574-0.19,5.101,0.713,6.987,2.469c1.885,1.757,2.955,4.218,2.955,6.794v2.173
			C196.087,206.237,192.201,210.318,187.252,210.56z M278.049,251.352c-2.141,5.336-5.481,10.277-9.928,14.686
			c-8.615,8.615-19.183,12.999-31.384,12.999c-12.196,0-22.763-4.367-31.405-12.982c-8.646-8.618-13.031-19.202-13.031-31.457
			c0-12.199,4.383-22.767,13.027-31.411c8.645-8.645,19.213-13.026,31.409-13.026c10.812,0,19.856,2.949,27.648,9.017
			c5.014,3.904,7.701,7.551,9.146,9.511c1.585,2.149,2.167,4.878,1.598,7.487c-0.568,2.609-2.232,4.848-4.568,6.144l-50.803,28.187
			c0.173,0.184,0.35,0.365,0.529,0.545c4.577,4.577,9.958,6.803,16.449,6.803c6.494,0,11.89-2.238,16.494-6.844
			c2.17-2.169,3.828-4.576,4.929-7.154c1.651-3.869,5.692-6.145,9.862-5.545l2.728,0.392c2.819,0.405,5.299,2.083,6.724,4.551
			C278.898,245.72,279.111,248.705,278.049,251.352z M364.465,251.352c-2.141,5.336-5.48,10.277-9.928,14.686
			c-8.615,8.615-19.184,12.999-31.383,12.999c-12.197,0-22.765-4.367-31.406-12.982c-8.646-8.618-13.031-19.202-13.031-31.457
			c0-12.199,4.383-22.767,13.027-31.411c8.645-8.645,19.213-13.026,31.41-13.026c10.149,0,18.823,2.781,27.295,8.754
			c5.131,3.618,7.56,7.044,9.011,9.093l0.488,0.68c1.595,2.164,2.173,4.912,1.587,7.534c-0.586,2.624-2.279,4.864-4.644,6.143
			l-49.344,26.705c-0.637,0.345-1.297,0.605-1.966,0.791c0.355,0.402,0.729,0.801,1.121,1.191c4.577,4.577,9.958,6.803,16.45,6.803
			c6.493,0,11.889-2.238,16.493-6.844c2.171-2.169,3.828-4.576,4.929-7.154c1.651-3.869,5.684-6.145,9.861-5.545l2.729,0.392
			c2.82,0.405,5.299,2.083,6.723,4.551C365.315,245.72,365.528,248.705,364.465,251.352z"/>
	</g>
</g>
<g>
</g>
<g>
</g>
<g>
</g>
<g>
</g>
<g>
</g>
<g>
</g>
<g>
</g>
<g>
</g>
<g>
</g>
<g>
</g>
<g>
</g>
<g>
</g>
<g>
</g>
<g>
</g>
<g>
</g>
</svg>
