<svg xmlns="http://www.w3.org/2000/svg" viewBox="0 0 22.91 33.17"><defs><style>.cls-1{fill:#3d3d3d;}</style></defs><title>icono_perro</title><g id="Capa_2" data-name="Capa 2"><g id="Capa_1-2" data-name="Capa 1"><path class="cls-1" d="M15.15,16.52a5.71,5.71,0,0,0-2,1.85,9.4,9.4,0,0,0-.92,2.44,1.21,1.21,0,0,0,0,.7c.15.65.33,1.3.52,1.94a.94.94,0,0,1-.12.86c-.73,1.13-1.48,2.24-2.16,3.39A4.94,4.94,0,0,0,10,30.88a.48.48,0,0,0,.1.23c.35.39.26.87.28,1.32s-.39.64-.85.71A3.8,3.8,0,0,1,7.84,33a.4.4,0,0,1-.31-.54c.1-.39.24-.78.33-1.19a4.86,4.86,0,0,0,0-.54c0-.26.07-.53.12-.79s.18-.66.26-1,0-.34-.26-.35-.66,0-.68-.36.31-.43.6-.54a1.58,1.58,0,0,0,1-1.52c.09-1.31.14-2.62.23-3.92a13,13,0,0,1,.25-1.74c.1-.49,0-.71-.47-.84a2.5,2.5,0,0,1-.41-.19A1.35,1.35,0,0,0,8,19.29a2,2,0,0,1-1.92-.89c0-.07-.11-.12-.16-.18l-.07,0C5.25,19.6,4.66,21,4.12,22.32a2.45,2.45,0,0,0,.3,2.4,2.47,2.47,0,0,1,.2.8,2.48,2.48,0,0,0,.23.61.84.84,0,0,1,0,1c-.29.4-.53.82-.82,1.26a2.64,2.64,0,0,1-1.38-1.76,9.76,9.76,0,0,1-.25-1.35c-.07-.38-.19-.75-.26-1.13A1.62,1.62,0,0,1,2,23.41,20,20,0,0,0,3,18.82c0-.51.23-1,.33-1.52,0-.14.07-.33,0-.43a4.47,4.47,0,0,1-.5-2.38,6.36,6.36,0,0,1,.69-3.21A3.16,3.16,0,0,0,3.74,10,6.11,6.11,0,0,1,4,8.82a4.69,4.69,0,0,0-.65,0,2.63,2.63,0,0,1-1.8-.31.62.62,0,0,0-.38-.06c-.32.06-.45-.11-.5-.4L.55,7A2.1,2.1,0,0,0,.49,6.8C.27,6.26.32,6.1.77,5.72c.27-.21.52-.45.79-.66a.5.5,0,0,0,.22-.63A2,2,0,0,1,1.69,4a.37.37,0,0,0-.4-.36c-.23,0-.48-.1-.63.22s-.2.56-.5.43-.07-.45,0-.64A19,19,0,0,1,1.28,1.5,2.14,2.14,0,0,1,3,.57,4.09,4.09,0,0,0,3.72.42a1.91,1.91,0,0,1,.92,0A4.78,4.78,0,0,0,6.1.42,13.73,13.73,0,0,0,7.51.09,1.71,1.71,0,0,1,8.88.2a3.82,3.82,0,0,0,1.86.48,1.94,1.94,0,0,1,.57.16c.09,0,.22.18.21.26a2.72,2.72,0,0,1-.24,1.13,2.62,2.62,0,0,0-.48,1,1.67,1.67,0,0,1-.59,1.09.44.44,0,0,0-.07.36c.18.71.39,1.4.58,2.11a.29.29,0,0,0,.34.26,8.68,8.68,0,0,1,4.1.93,4.34,4.34,0,0,1,2.21,2.1c.33.73.72,1.43,1.05,2.15a6.19,6.19,0,0,1,.29,4,5.15,5.15,0,0,0-.09,1.3,1.44,1.44,0,0,0,1.09,1.29,1.23,1.23,0,0,0,1.43-.52,3.16,3.16,0,0,1,1.63-1.18l.14,0c-.16.35-.31.68-.47,1s-.34.66-.5,1a2,2,0,0,1-1.28,1,1.84,1.84,0,0,1-1.44,0c-.2-.1-.36,0-.36.27,0,.91-.08,1.83-.07,2.75a5.27,5.27,0,0,0,.26,1,4.38,4.38,0,0,1,.19,1.06c0,.94-.13,1.88-.17,2.82a6,6,0,0,0,.09.94,2,2,0,0,1,0,.49c-.15.62-.21.85-.9.86-.43,0-.86.06-1.29.06a.59.59,0,0,1-.43-.92c.2-.27.48-.49.7-.75a1.12,1.12,0,0,0,.28-.46,7.2,7.2,0,0,0,.29-2.26c-.15-.86.06-1.72-.17-2.55L17,21.06a4.32,4.32,0,0,0-.36-1.17,10.56,10.56,0,0,1-.8-2.2A8.32,8.32,0,0,0,15.15,16.52Z"/></g></g></svg>