<svg xmlns="http://www.w3.org/2000/svg" viewBox="0 0 254.02 160"><defs><style>.cls-1{fill:#f1f1f1;}.cls-2{fill:#e6e6e6;}.cls-3{fill:#fff;}.cls-4{fill:#f9b225;}.cls-5{fill:#a0616a;}.cls-6{fill:#3f3d3b;}.cls-7{fill:#9e616a;}.cls-8{fill:#d11149;}.cls-9{fill:#2f2e41;}.cls-10{fill:#c4c4c4;}.cls-11{fill:#cacaca;}</style></defs><title>icono_publica</title><g id="Capa_2" data-name="Capa 2"><g id="Capa_1-2" data-name="Capa 1"><path class="cls-1" d="M21.37,159.92l-.3-.55c4-2.17,9-4.87,11.6-9.29s2.63-10.29.15-15.47c-2.11-4.4-6-8.35-11.19-11.41-1-.6-2.11-1.18-3.15-1.73a34.54,34.54,0,0,1-7.29-4.68c-3-2.71-5.2-7.24-3.53-11.28a7.49,7.49,0,0,1,6.5-4.55l0,.63a6.85,6.85,0,0,0-5.95,4.16c-1.56,3.76.57,8,3.38,10.57a33.51,33.51,0,0,0,7.15,4.59c1.05.56,2.14,1.14,3.18,1.75,5.32,3.12,9.28,7.16,11.44,11.68,2.56,5.36,2.5,11.51-.18,16S25.45,157.72,21.37,159.92Z"/><ellipse class="cls-1" cx="18.14" cy="101.6" rx="5.5" ry="2.67"/><ellipse class="cls-1" cx="22.54" cy="119.2" rx="5.5" ry="2.67"/><ellipse class="cls-1" cx="12.48" cy="122.03" rx="5.5" ry="2.67"/><ellipse class="cls-1" cx="28.19" cy="136.8" rx="5.5" ry="2.67"/><ellipse class="cls-1" cx="39.19" cy="136.8" rx="5.5" ry="2.67"/><rect id="bc1144e2-c94b-4f66-aa77-0b454dfd4174" class="cls-2" x="107.15" y="4.85" width="146.87" height="83.92"/><rect id="ad6bb9d5-2e55-4525-b077-6ac2d5f26b45" class="cls-3" x="111.35" y="12.05" width="138.47" height="70.02"/><rect id="a1fdfaec-ef9f-458a-9330-7bb8c38fec43" class="cls-4" x="107.09" width="146.87" height="7.51"/><circle id="ac9f2818-2064-46b1-8104-b7d94390836e" class="cls-3" cx="112.67" cy="3.48" r="1.39"/><circle id="bd067119-2054-4d5f-9303-2e8fa40cc410" class="cls-3" cx="117.96" cy="3.48" r="1.39"/><circle id="ee5e9ca0-6fca-449b-8f84-cf683813bd65" class="cls-3" cx="123.24" cy="3.48" r="1.39"/><path id="acae6c4c-8028-4596-98db-d9926d2ed09f-597" class="cls-2" d="M181.86,28.67a.68.68,0,0,0,0,1.34H212.6a.68.68,0,0,0,0-1.34Z"/><path id="a061bcdc-636b-4d12-a036-d7339f47b36a-598" class="cls-2" d="M181.86,32.71a.63.63,0,0,0-.56.68.62.62,0,0,0,.56.67h15.69a.62.62,0,0,0,.56-.67.63.63,0,0,0-.56-.68Z"/><path id="e4e4593e-e83d-4128-8cd7-f0323b36c2f2-599" class="cls-2" d="M181.09,52.31a.68.68,0,0,0,0,1.35h57.64a.69.69,0,0,0,0-1.35Z"/><path id="bf45783c-1d79-4b4f-82bb-39fc8a52f7aa-600" class="cls-2" d="M181.09,56.36a.62.62,0,0,0-.56.67.64.64,0,0,0,.56.68h42.59a.64.64,0,0,0,.56-.68.62.62,0,0,0-.56-.67Z"/><path id="b544fc92-6fc6-4255-93fb-dee32d880d89-601" class="cls-2" d="M181.09,60.31a.63.63,0,0,0-.56.68.62.62,0,0,0,.56.67h57.64a.62.62,0,0,0,.56-.67.63.63,0,0,0-.56-.68Z"/><path id="e14bb681-aaa1-4454-9da9-28d0809a146c-602" class="cls-2" d="M181.09,64.36a.63.63,0,0,0-.56.68.62.62,0,0,0,.56.67h42.59a.69.69,0,0,0,0-1.35Z"/><polygon class="cls-5" points="51.36 156.09 55.21 156.09 57.05 141.23 51.36 141.23 51.36 156.09"/><path class="cls-6" d="M50.38,154.83H58a4.84,4.84,0,0,1,4.83,4.84v.15H50.38Z"/><polygon class="cls-5" points="65.82 156.09 69.67 156.09 71.5 141.23 65.81 141.23 65.82 156.09"/><path class="cls-6" d="M64.83,154.83h7.59a4.84,4.84,0,0,1,4.84,4.84v.15H64.83Z"/><path class="cls-7" d="M39.67,97.37a3.17,3.17,0,0,0-.15-4.47,3.46,3.46,0,0,0-.44-.34l2.68-10.91-5.5,2-1.7,10.06a3.18,3.18,0,0,0,5.11,3.7Z"/><path class="cls-7" d="M80.57,96.43A3.16,3.16,0,0,1,80.72,92a2.87,2.87,0,0,1,.44-.34L78.48,80.71l5.5,2,1.7,10a3.18,3.18,0,0,1-5.11,3.71Z"/><polygon class="cls-8" points="44.74 89.72 50.08 152.28 57.89 151.57 61.02 103.22 63.8 122.36 64.36 152.77 71.43 152.3 75.36 119.59 74.39 87.91 47.55 85.19 44.74 89.72"/><circle class="cls-5" cx="59.43" cy="24.69" r="8.1"/><path class="cls-9" d="M56.86,18.21s3.78,1,5.74,1.42,1.76-.74,1.76-.74,2.56.34,2.43.06,1.08-1.68-.34-3.3-1-2.84-1-2.84H64.22l-.33-.47H62a7.45,7.45,0,0,0-5.8-1.3c-3.71.54-8.11,2-8.51,4.2-.06.3-.13.64-.21,1-1,4.29,1.14,8.3,3.38,12.1.55.93,3.21,3,3.14,1.57s-2.39-4.53-.77-4.73S57.61,20.85,56.86,18.21Z"/><path class="cls-10" d="M51,35.57H65.27L75.36,88.86s-8.8.75-13.83,2.63-13.38-4.3-13.38-4.3Z"/><path class="cls-6" d="M52.78,41.58v-6H51.16l-11.8,7.5,2.56,41.13s3,13.72,7.63,13.57S57.69,48.71,52.78,41.58Z"/><path class="cls-6" d="M43.15,44.2l-3.79-1.14a4,4,0,0,0-2.81,3.65c0,2.83-2.42,43-2.42,43l7.68.68L43.46,70Z"/><path class="cls-6" d="M64.2,39.48l-.75-3.91,2.17-.33,7.85,3.14s7.08,51.7,3.93,53.27-5.26.35-5.26.35S61.8,53.88,63.63,48.72Z"/><path class="cls-6" d="M68,39.17l1.35-.58a4.63,4.63,0,0,1,6.16,2c2.24,3.94,10.09,47.94,10.09,47.94l-6.46,1.21L74.28,73.89Z"/><path class="cls-11" d="M120,160H.31a.32.32,0,0,1,0-.63H120a.32.32,0,1,1,0,.63Z"/><path class="cls-6" d="M152.7,55.54c.33-.07.64-.12,1-.16a13,13,0,0,1,2.06-.13,14.08,14.08,0,0,1,4.36.72,9.31,9.31,0,0,1,2.68,1.37,5.5,5.5,0,0,1,.91.83,1.42,1.42,0,0,1,.08,1.87,3.64,3.64,0,0,1-.89.86,8.83,8.83,0,0,1-2.79,1.27,6.59,6.59,0,0,1-2,.3,2.49,2.49,0,0,1-1.1-.22l-.11-.07a.44.44,0,0,1-.18-.54,1.16,1.16,0,0,1,.29-.47.79.79,0,0,1,.68-.37,13,13,0,0,0,2.6-.72,2.83,2.83,0,0,0,.79-.45l.11-.11a.51.51,0,0,0,0-.76,2.06,2.06,0,0,0-.74-.53,5.85,5.85,0,0,0-1.48-.43,12,12,0,0,0-2.24-.14,11.24,11.24,0,0,0-2.93.44,5.31,5.31,0,0,0-1,.41,4.31,4.31,0,0,1-1.39.47,2.74,2.74,0,0,1-1.78-.26.1.1,0,0,0-.09,0c-.75.2-1.5.38-2.26.52a11.19,11.19,0,0,1-2.24.22,2.43,2.43,0,0,1-.66-.07,1.21,1.21,0,0,1-.85-.78,1.13,1.13,0,0,1,0-.77c0-.06,0-.08,0-.09l-.79-.14a.08.08,0,0,0-.09.06,2.68,2.68,0,0,1-1.43,1.45,2.16,2.16,0,0,1-1.13.07,3.42,3.42,0,0,1-.71-.21.7.7,0,0,1-.46-.5,1.59,1.59,0,0,1-.07-.38.1.1,0,0,0-.06-.09,1,1,0,0,1-.34-.25.6.6,0,0,1-.15-.65,1.31,1.31,0,0,1,.21-.36,1.69,1.69,0,0,1,.61-.51.39.39,0,0,0,.22-.25,3.3,3.3,0,0,0,.15-.81,36.06,36.06,0,0,0,.11-4.16,3.39,3.39,0,0,1,0-.55,1.09,1.09,0,0,0-.09-.47,10.15,10.15,0,0,0-.59-1.3c-.43-.87-.9-1.71-1.31-2.58a4.72,4.72,0,0,1-.41-1.27,3.54,3.54,0,0,1,0-.92,1.9,1.9,0,0,0-.1-.85c-.09-.27-.18-.54-.29-.8a.3.3,0,0,0-.09-.13,8.5,8.5,0,0,1-1.34-1.71,4.51,4.51,0,0,1-.58-1.71,3.13,3.13,0,0,1,.58-2.31.16.16,0,0,0,0-.1c-.12-.63-.24-1.25-.33-1.88a8.1,8.1,0,0,1-.14-1.63,1,1,0,0,1,.21-.59.29.29,0,0,1,.31-.09,1.62,1.62,0,0,1,.4.19,10.15,10.15,0,0,1,1.22.94c.29.24.59.49.87.74a.66.66,0,0,0,.48.18c.38,0,.77,0,1.15,0l1-.09a.14.14,0,0,0,.13-.08,7.68,7.68,0,0,1,1-1.5,2.09,2.09,0,0,1,.56-.46.75.75,0,0,1,.39-.09.51.51,0,0,1,.44.38,2.13,2.13,0,0,1,.15.75,10.58,10.58,0,0,1-.07,2c-.05.45-.11.89-.18,1.33,0,0,0,.05,0,.07a1.41,1.41,0,0,1,.3.46,11.38,11.38,0,0,1,.55,1.36.2.2,0,0,0,.1.12,3.2,3.2,0,0,1,.67.49,5,5,0,0,1,.8.92.66.66,0,0,1,.09.19.82.82,0,0,0,.2.26,8.1,8.1,0,0,0,1.09.84,1.19,1.19,0,0,0,.36.17A9.14,9.14,0,0,1,150,42.6a7.46,7.46,0,0,1,2.58,3.17,10.32,10.32,0,0,1,.72,2.51,14.93,14.93,0,0,1,.11,3.34,18.9,18.9,0,0,1-.69,3.88S152.7,55.52,152.7,55.54Z"/><path class="cls-6" d="M149.84,67c-.62.06-1.25.09-1.88.09s-1.21,0-1.82-.08c0,.37.07.76.11,1.16.56,0,1.14.07,1.71.07s1.33,0,2-.09a22,22,0,0,0,2.54-.39,3.77,3.77,0,0,1,.15-1.16v-.07A18.9,18.9,0,0,1,149.84,67Zm18-26.72a21,21,0,1,0-36.37,20c.19.24.38.48.58.7l0,0a21.86,21.86,0,0,0,1.57,1.62l.41.36s0,0,0,0c.28.25.58.5.88.73a.4.4,0,0,1,.12.1l.25.18c.48.37,1,.71,1.5,1h0l.44.27.47.27.37.2.17.09c.41.21.83.41,1.25.59l.27.12h0l.61.24a21,21,0,0,0,2,.65c.12,0,.24.06.36.09a21,21,0,0,0,3.36.55c.56,0,1.14.07,1.71.07s1.33,0,2-.09a22,22,0,0,0,2.54-.39c.63-.14,1.25-.31,1.86-.5h0c.45-.14.88-.3,1.31-.47s.87-.36,1.3-.57h0a0,0,0,0,1,0,0l.57-.28.09,0,.43-.22,0,0q.57-.32,1.11-.66a2.61,2.61,0,0,0,.3-.2,4.61,4.61,0,0,0,.43-.29c.19-.12.37-.26.56-.4a1.77,1.77,0,0,0,.17-.12c.44-.34.87-.69,1.28-1.06a21,21,0,0,0,5.87-22.62Zm-6.23,21.39A17.76,17.76,0,0,1,160,63c-.12.1-.25.19-.38.28l-.38.27a2.7,2.7,0,0,1-.33.22l0,0-.25.16c-.25.16-.51.31-.77.46l-.18.11-.11,0c-.14.08-.28.16-.43.23s0,0-.06,0h0l-.3.15-.25.13-1.06.47q-.57.23-1.14.42l-.3.1c-.45.14-.9.27-1.37.37a18.9,18.9,0,0,1-2.79.47c-.62.06-1.25.09-1.88.09s-1.21,0-1.82-.08a20.29,20.29,0,0,1-3.19-.56l-.12,0a18.71,18.71,0,0,1-2.52-.86l-.13,0-.13,0-.13-.06q-.54-.24-1-.51l-.17-.08c-.31-.16-.61-.33-.91-.52l-.32-.19c-.12-.07-.24-.14-.35-.22l-.09-.06c-.26-.18-.54-.36-.79-.55l-.54-.4-.33-.28a1.84,1.84,0,0,1-.22-.17l-.28-.25a5.14,5.14,0,0,1-.42-.38,17.31,17.31,0,0,1-1.52-1.57c-.16-.18-.32-.36-.46-.55l-.1-.12a19.89,19.89,0,1,1,29.24,2.12Z"/></g></g></svg>