<svg xmlns="http://www.w3.org/2000/svg" viewBox="0 0 27.92 21.99"><defs><style>.cls-1{fill:#3d3d3d;}</style></defs><title>icono_roedor</title><g id="Capa_2" data-name="Capa 2"><g id="Capa_1-2" data-name="Capa 1"><path class="cls-1" d="M26.38,14.65l.07,0h.09l0,.4h0l.06-.11c.14-.3.27-.6.41-.89,0,0,.07-.08.11-.12s0,.12,0,.16c-.17.39-.35.78-.52,1.16a1.21,1.21,0,0,0,0,.18l0,0c.15-.23.3-.47.46-.7a1.13,1.13,0,0,1,.12-.18s.07,0,.11,0,0,.09,0,.11-.18.28-.27.42a2.53,2.53,0,0,1-.21.32c-.19.21-.17.49-.25.73l0,0,.67-.87,0,0-.75,1.18,0,0,.13-.1.79-.9s0,0,.07-.06a.61.61,0,0,1,.12-.05s0,.09,0,.12c-.29.39-.59.77-.89,1.16l-.09.13,0,0,.11-.08,1-.79a.67.67,0,0,1,.15-.06l0,.06-.78.65.15,0-.14.18s0,0,0,0h.16a.74.74,0,0,1-.13.12c-.16.06-.38.07-.47.18s0,.32,0,.49a.84.84,0,0,1-.69.9c-.16.06-.32.08-.48.13a.41.41,0,0,0-.19.15,1.37,1.37,0,0,0-.16.89s0,.09,0,.14-.09-.08-.08-.12c0-.23,0-.46.05-.69a.7.7,0,0,0,0-.25.72.72,0,0,0-.11.37,1.87,1.87,0,0,1-.09.41v-.77h0l-.34,1.16a1.1,1.1,0,0,1,.89.53l-.15.05.32.45L25,20.77l.09.34L24.37,21l.07.46c-.12-.08-.21-.17-.32-.23a5.54,5.54,0,0,0-.86-.39,4.94,4.94,0,0,0-1-.16c-.47-.06-.95-.1-1.43-.15a.69.69,0,0,0-.6.17,1.22,1.22,0,0,1,1.09.46l-.25.1.45.58-.74-.19,0,.3-.43-.13V22l-.15-.06a4.93,4.93,0,0,0-1.83-.56,1,1,0,0,1-.36-.12,3.11,3.11,0,0,0-1-.29.46.46,0,0,1-.28-.13.81.81,0,0,0-.76-.25c-.19,0-.38,0-.57.05a2.32,2.32,0,0,0-.38.06,1.46,1.46,0,0,1-1.14,0l-.45-.2a1.13,1.13,0,0,0-.77,0l.64.52a1.15,1.15,0,0,1,.14.17h-.22a.93.93,0,0,1-.19,0l.22.34-.78-.22,0,0,.15.28a2.89,2.89,0,0,1-.66-.17,7,7,0,0,0-1.83-.61,5.29,5.29,0,0,1-1.48-.6.48.48,0,0,1-.2-.27c0-.14.1-.22.21-.27l.72-.25.19-.07c-.12-.1-.23-.18-.32-.27a5.86,5.86,0,0,1-.44-.42.53.53,0,0,0-.29-.19l-1-.26a5.77,5.77,0,0,1-1.64-.69c-.8-.51-1.61-1-2.39-1.53a3,3,0,0,1-1-1.17l.05,0,.07,0-.06-.06a3.05,3.05,0,0,1-1.11-1.09,8.81,8.81,0,0,1-.78-1.91C.46,11.08.28,10.53.12,10c0-.05,0-.11-.06-.2l.46.28c0-.08-.05-.12-.07-.15L.16,9.42a.3.3,0,0,1,0-.34.53.53,0,0,0,0-.46C.11,8.42.05,8.21,0,8A.32.32,0,0,1,.06,7.8.54.54,0,0,0,.2,7.29a.09.09,0,0,1,0,0,.47.47,0,0,1,.14-.65A.59.59,0,0,0,.51,6s0-.1,0-.17L.76,6c0-.15,0-.25-.05-.35s0-.26.14-.4a.19.19,0,0,0,0-.15c0-.16-.08-.32-.12-.48a.43.43,0,0,0,.39-.31l.51-1.23a1.11,1.11,0,0,1,.07-.16c.09,0,.09,0,.26.4a.26.26,0,0,0,0-.1,3.33,3.33,0,0,0,.11-.53.38.38,0,0,1,.4-.41.53.53,0,0,0,.55-.51.73.73,0,0,1,.67-.6A5.45,5.45,0,0,0,4.71.93,2.41,2.41,0,0,0,5.34.55,2.09,2.09,0,0,1,6.08.13C6.2.1,6.32.05,6.44,0a.13.13,0,0,1,0,.2L6.3.49a.56.56,0,0,0,0,.12l0,0L6.92.15l0,0L6.7.69l0,0L7.56,0l.27.38A4.19,4.19,0,0,1,8.17.1a.38.38,0,0,1,.16,0,.4.4,0,0,1,0,.15C8.25.78,8.13,1.35,8,1.93a2.34,2.34,0,0,1-.44.91l-.22.3c-.16.23-.14.32.08.51L7.28,4,6.41,5.61a1.18,1.18,0,0,0-.14.74,3.36,3.36,0,0,1-.08.89A6,6,0,0,0,6,8.43c0,.7,0,1.4-.08,2.1a2.61,2.61,0,0,0,0,.28.51.51,0,0,1,.61.29c.28.61.53,1.23.82,1.82.22.44.49.86.74,1.28a1.5,1.5,0,0,0,.14.19l.07-.26a5.42,5.42,0,0,1,1.79-3,15.37,15.37,0,0,1,1.7-1.31,6.07,6.07,0,0,1,2.49-.79l1.26-.21a4.13,4.13,0,0,1,1.94.2c.48.16,1,.35,1.43.56a2.85,2.85,0,0,0,1.21.27l2,0h.11c.28,0,.35-.11.24-.38s-.21-.44-.32-.66-.26-.5-.38-.76a1.53,1.53,0,0,1-.14-.41c-.06-.25.1-.4.34-.3a6.84,6.84,0,0,1,1.06.5,3.15,3.15,0,0,1,1.32,1.56,3.32,3.32,0,0,1,.17.93,1.57,1.57,0,0,0,.41,1.07,3.2,3.2,0,0,1,.76,1.16c.08.24.11.49.18.74a1.46,1.46,0,0,0,.16.39A2.38,2.38,0,0,1,26.38,14.65ZM23,19.47a2,2,0,0,0,1.31.44.11.11,0,0,0,.09-.06c.09-.29.17-.59.26-.88l0,0-.26.51a.39.39,0,0,1-.1.08.57.57,0,0,1,0-.13,1.76,1.76,0,0,1,.09-.2l.22-.5c-.35.09-.39.43-.62.6l.25-.53c-.21,0-.42-.07-.55.11a1.22,1.22,0,0,1-.39.36A2.46,2.46,0,0,0,23,19.47Z"/></g></g></svg>