<?xml version="1.0" standalone="no"?>
<!DOCTYPE svg PUBLIC "-//W3C//DTD SVG 20010904//EN"
 "http://www.w3.org/TR/2001/REC-SVG-20010904/DTD/svg10.dtd">
<svg version="1.0" xmlns="http://www.w3.org/2000/svg"
 width="860.000000pt" height="900.000000pt" viewBox="0 0 860.000000 900.000000"
 preserveAspectRatio="xMidYMid meet">

<g transform="translate(0.000000,900.000000) scale(0.100000,-0.100000)"
fill="#80b2da" stroke="none">
<path d="M4050 8594 c-19 -2 -100 -11 -180 -19 -295 -32 -633 -107 -858 -191
-34 -13 -70 -24 -80 -24 -10 0 -22 -4 -27 -8 -6 -5 -26 -15 -45 -22 -148 -55
-310 -130 -480 -224 -205 -112 -461 -283 -585 -390 -27 -24 -84 -72 -125 -107
-124 -105 -263 -244 -362 -361 -51 -61 -105 -123 -119 -138 -14 -15 -52 -65
-84 -111 -33 -46 -63 -87 -67 -90 -14 -9 -183 -277 -224 -354 -65 -122 -184
-366 -184 -377 0 -8 -6 -22 -13 -33 -8 -11 -24 -49 -37 -85 -13 -36 -27 -69
-32 -74 -4 -6 -8 -17 -8 -25 0 -9 -11 -45 -23 -81 -36 -98 -77 -233 -77 -249
0 -8 -11 -56 -24 -105 -124 -459 -144 -1112 -50 -1616 14 -74 27 -146 30 -160
13 -75 86 -334 121 -435 49 -138 83 -226 128 -330 41 -93 191 -385 212 -410 4
-6 17 -26 27 -45 25 -46 147 -234 155 -240 4 -3 35 -45 70 -93 35 -49 71 -96
80 -105 10 -9 53 -60 97 -112 103 -123 275 -295 394 -394 52 -44 102 -87 110
-96 8 -9 56 -46 105 -81 50 -35 93 -67 96 -72 6 -8 88 -62 229 -149 82 -51
104 -63 200 -114 25 -13 52 -29 60 -34 20 -13 227 -110 236 -110 3 0 20 -6 37
-14 56 -25 186 -75 292 -111 117 -40 352 -104 425 -115 25 -4 92 -17 150 -28
597 -117 1375 -57 1960 150 30 11 69 23 85 28 26 7 116 42 180 70 118 51 188
83 285 134 161 83 172 89 207 114 17 12 34 22 37 22 3 0 45 26 93 57 289 188
587 438 775 650 213 240 334 403 516 695 37 60 200 388 230 463 11 28 31 77
45 110 31 75 127 364 127 383 0 8 11 54 24 101 32 113 71 320 93 501 26 206
25 715 0 920 -23 182 -63 401 -93 506 -13 45 -24 88 -24 97 0 14 -102 318
-138 412 -11 28 -26 66 -33 85 -26 65 -188 385 -239 470 -89 148 -268 412
-295 435 -6 6 -51 60 -100 120 -114 141 -329 356 -470 470 -60 49 -114 94
-120 100 -21 24 -317 227 -387 265 -20 11 -54 31 -75 46 -40 27 -363 187 -448
222 -281 115 -559 197 -830 246 -250 44 -405 59 -680 61 -143 2 -276 1 -295
-1z m-1246 -1420 c160 -55 275 -176 316 -332 63 -239 -39 -465 -258 -574 -66
-33 -68 -33 -207 -33 -132 0 -143 2 -200 28 -33 15 -82 45 -110 66 -56 43
-133 148 -147 201 -5 19 -14 53 -19 75 -21 80 8 311 41 335 4 3 14 19 23 36
19 37 89 108 139 141 83 55 145 73 264 73 76 0 125 -5 158 -16z m2876 -1139
c169 -24 330 -97 475 -217 171 -141 292 -324 357 -537 53 -175 58 -268 58
-1288 l0 -923 -414 0 -414 0 -5 933 -4 932 -25 85 c-72 253 -219 372 -458 371
-85 0 -187 -22 -247 -54 -15 -9 -42 -23 -60 -32 -55 -29 -152 -125 -189 -188
-19 -33 -49 -101 -65 -151 l-29 -90 0 -903 0 -903 -420 0 -420 0 0 1470 0
1470 418 -2 417 -3 5 -152 5 -152 55 52 c62 58 152 127 168 127 5 0 15 6 21
13 12 15 152 87 169 87 6 0 31 9 56 19 44 20 187 47 276 54 60 5 154 -2 270
-18z m-2620 -1495 l0 -1470 -410 0 -410 0 0 1470 0 1470 410 0 410 0 0 -1470z"/>
</g>
</svg>
