<svg xmlns="http://www.w3.org/2000/svg" viewBox="0 0 314.24 95.16"><defs><style>.cls-1{fill:#f9b225;}</style></defs><title>version_primario_logo</title><g id="Capa_2" data-name="Capa 2"><g id="Capa_1-2" data-name="Capa 1"><rect class="cls-1" x="293.62" y="25.52" width="20.62" height="56.24" rx="10.31"/><path class="cls-1" d="M45.38,28.54h0a10.3,10.3,0,0,0-14.58,0L20.62,38.72V35.83A10.31,10.31,0,0,0,0,35.83V72.66a10.31,10.31,0,0,0,20.62,0V69.77L30.8,80A10.31,10.31,0,0,0,45.38,65.37L34.25,54.25,45.38,43.12A10.32,10.32,0,0,0,45.38,28.54Z"/><path class="cls-1" d="M86.38,25.52A28.69,28.69,0,0,0,57.73,54.25c0,15.86,11.92,32.64,28.65,40.91C102.56,86.8,115,70.11,115,54.25A28.68,28.68,0,0,0,86.38,25.52Zm0,38.45a9.73,9.73,0,1,1,9.7-9.72A9.71,9.71,0,0,1,86.38,64Z"/><circle class="cls-1" cx="113.75" cy="22.22" r="7.91" transform="translate(17.6 86.94) rotate(-45)"/><ellipse class="cls-1" cx="76.44" cy="9.15" rx="7.91" ry="9.15"/><ellipse class="cls-1" cx="95.22" cy="9.15" rx="7.91" ry="9.15"/><circle class="cls-1" cx="59.01" cy="23.23" r="7.91" transform="translate(-3.76 14.18) rotate(-13.28)"/><path class="cls-1" d="M195.37,22.87a29.39,29.39,0,0,0-20.14,8,29.44,29.44,0,0,0-49.42,18.46,12.21,12.21,0,0,0-.35,2.61V72.31a10.32,10.32,0,0,0,10.31,10.31h0a10.26,10.26,0,0,0,7.55-3.31c1.25-1.65,1.48-5.75,1.48-7V51.9a10.31,10.31,0,0,1,20.62,0V72.31c0,1.34.46,6.12,1.34,7.06a10.29,10.29,0,0,0,7.49,3.25,8.69,8.69,0,0,0,.89-.05,8.85,8.85,0,0,0,.89.05,10.26,10.26,0,0,0,7.55-3.31c1.25-1.65,1.48-5.75,1.48-7V51.9a10.31,10.31,0,1,1,20.61,0V72.31c0,1.34.47,6.12,1.35,7.06a10.29,10.29,0,0,0,17.8-7.06V51.9c0-.15,0-.29,0-.43A29.44,29.44,0,0,0,195.37,22.87Z"/><path class="cls-1" d="M261.89,25.27a24.27,24.27,0,0,0-9,1.73,10.3,10.3,0,0,0-15.18,9.08V47.43c-.06.7-.1,1.4-.1,2.12s0,1.42.1,2.12V72.92a10.31,10.31,0,0,0,20.59.64,23.61,23.61,0,0,0,3.59.27,24.28,24.28,0,1,0,0-48.56Zm0,34a9.76,9.76,0,0,1-3.56-18.84,9.56,9.56,0,0,1,3.56-.69,9.77,9.77,0,1,1,0,19.53Z"/></g></g></svg>