<svg xmlns="http://www.w3.org/2000/svg" viewBox="0 0 24.97 29.83"><defs><style>.cls-1{fill:#3d3d3d;}</style></defs><title>icono_reptil</title><g id="Capa_2" data-name="Capa 2"><g id="Capa_1-2" data-name="Capa 1"><path class="cls-1" d="M16.48,29.61s.08-.06.12-.05a.88.88,0,0,0,.67-.17,3.49,3.49,0,0,0,.7-.62.9.9,0,0,0-.23-1.28A3.74,3.74,0,0,0,16,27a11.52,11.52,0,0,0-2.56.14c-1.36.1-2.71.23-4.07.29a13.19,13.19,0,0,1-3.81-.36c-.48-.12-.93-.34-1.4-.48a6.82,6.82,0,0,1-2.49-1.4A3.38,3.38,0,0,1,1,24.3a10.46,10.46,0,0,1-.71-1.47,4.51,4.51,0,0,1-.24-2,7.6,7.6,0,0,1,.57-1.62c0-.12.11-.23.15-.35a2.43,2.43,0,0,1,.87-1.15c.32-.27.64-.52,1-.78a2.62,2.62,0,0,1,1-.5,3.52,3.52,0,0,0,.71-.25c.74-.32,1.48-.66,2.21-1a.9.9,0,0,0,.27-.2.32.32,0,0,0,.08-.21c0-.1,0-.21,0-.32a.5.5,0,0,1-.53-.3,2.94,2.94,0,0,0-1-.95.31.31,0,0,0-.45,0c-.1.12-.08.27.06.42a.59.59,0,0,1,.06.14c-.06,0-.14,0-.19,0a.44.44,0,0,1-.33-.44c0-.24,0-.51.35-.58a4.13,4.13,0,0,0,.42-.14l-.1-.09a2.31,2.31,0,0,1-.39-.31A1.41,1.41,0,0,0,4,11.84a.41.41,0,0,0-.29.05s0,.16,0,.25a.77.77,0,0,0,0,.15l-.07.05A1.9,1.9,0,0,1,3.29,12a.28.28,0,0,1,.2-.39c.15,0,.33-.14.47-.1a3.87,3.87,0,0,1,.83.38c.11.06.19.18.32.25A1.4,1.4,0,0,1,5,11.92c-.13-.26-.26-.52-.38-.78s-.38-.29-.5-.17a.65.65,0,0,0-.07.21,1,1,0,0,0,0,.17c-.24,0-.26-.22-.33-.35a.28.28,0,0,1,.06-.24.39.39,0,0,1,.52-.16c.12.06.27.07.4.13a1,1,0,0,1,.42.56c.14.29.31.57.48.86,0,0,.06.06.12.13a.68.68,0,0,0,0-.21c0-.22-.06-.45-.11-.67s-.08-.12-.16-.23l-.13.23A.32.32,0,0,1,5.29,11a.23.23,0,0,1,.35,0A3.9,3.9,0,0,1,6,11.3s.05.07.06.07c.27,0,.31.14.38.33a1.77,1.77,0,0,0,.16.3l.08-.12a3.76,3.76,0,0,1,1.07-1.34,1,1,0,0,1,1.15,0,1,1,0,0,1,.45.73,1.76,1.76,0,0,1,0,.31,2.82,2.82,0,0,0-.07.31c0,.31,0,.63-.07.95l0,0a4.14,4.14,0,0,0,.35-.38,11.59,11.59,0,0,0,1.13-1.72A8,8,0,0,1,11.92,9c.19-.22.33-.48.53-.69s.61-.53.9-.81a6.32,6.32,0,0,0,.7-.85l-.27.21a.8.8,0,0,1-1-.06.86.86,0,0,1-.13-.37,4.76,4.76,0,0,1,.17-2.12,2.39,2.39,0,0,1,.25-.54.83.83,0,0,0,0-.86.79.79,0,0,1,0-.8c.12-.19.2-.19.32,0-.19.22-.2.26,0,.52a5.93,5.93,0,0,0,.12-.76.94.94,0,0,1,.26-.71.71.71,0,0,1,.14-.1l0,0a2.21,2.21,0,0,0-.08.37,3.15,3.15,0,0,0,0,.4c.17-.12.3-.23.44-.32a.77.77,0,0,1,.79,0,.39.39,0,0,1,.16.15,1.7,1.7,0,0,1,0,.22.49.49,0,0,1-.21,0c-.38-.16-.44-.14-.69.2a2.45,2.45,0,0,0-.25.42,1.13,1.13,0,0,1,.8-.35.69.69,0,0,1,.74.63s0,.09-.07.09a.29.29,0,0,1-.18-.05c-.06,0-.09-.13-.15-.17a.56.56,0,0,0-.83.34.67.67,0,0,1,.74,0,1,1,0,0,1,.27.31.17.17,0,0,1,0,.18.15.15,0,0,1-.17,0,.66.66,0,0,0-.78,0c-.38.25-.44.42-.27.88l.27-.22a1.49,1.49,0,0,1,.88-.33c.11,0,.21,0,.28-.13a5.16,5.16,0,0,1,1-1.36c.21-.22.4-.46.6-.68a4.28,4.28,0,0,1,.86-.6A4.56,4.56,0,0,1,19.36.51l1-.25c.2-.05.41-.07.61-.14a1.47,1.47,0,0,1,.88,0,3.35,3.35,0,0,0,1.51,0,1.5,1.5,0,0,1,.47,0,.82.82,0,0,1,.69,1.07,1.32,1.32,0,0,1-.41.69,6.81,6.81,0,0,0-1.28,1.4.53.53,0,0,1-.13.13,8,8,0,0,1-1.6.87,2.52,2.52,0,0,0-1.25.88,3.18,3.18,0,0,0-.26.44.15.15,0,0,0,0,.13,3.11,3.11,0,0,1,.61,1.71c0,.06,0,.13,0,.22l.07-.08a1.38,1.38,0,0,1,1-.8.48.48,0,0,0,.34-.35.77.77,0,0,1,.63-.61c.07,0,.14-.06.22-.07a.62.62,0,0,1,.65.18.82.82,0,0,1,.9,0,.43.43,0,0,1,.15.15,1.17,1.17,0,0,1,.07.25c-.11,0-.23,0-.31,0a.44.44,0,0,0-.65.19,2.42,2.42,0,0,0-.12.23l.22,0a2.36,2.36,0,0,1,1.21.08.56.56,0,0,1,.34.71c0,.07-.14.11-.21.16s-.11-.12-.12-.19A.38.38,0,0,0,24.26,7a4.92,4.92,0,0,0-1.38.11.61.61,0,0,0-.29.18l.64.07a.51.51,0,0,1,.41.33c.08.15,0,.25-.13.32s-.18,0-.25-.12A.39.39,0,0,0,23,7.7a2.24,2.24,0,0,0-1.09,0,.38.38,0,0,1-.18,0,.46.46,0,0,0-.5.3,2.69,2.69,0,0,1-1,1.19,1.19,1.19,0,0,1-.77.19.37.37,0,0,1-.22-.12,1.61,1.61,0,0,1-.54-.86,1.68,1.68,0,0,0-.08-.25,9.36,9.36,0,0,0-.44,1.71,17.92,17.92,0,0,1-.39,2.19,6.63,6.63,0,0,1-.7,1.59,6.36,6.36,0,0,1-1.82,2c-.48.34-1,.61-1.5.92l-.09.05c.22.14.44.26.64.41a1.11,1.11,0,0,1,.4,1.33A3.39,3.39,0,0,1,13.52,20a3.39,3.39,0,0,1-1.3.72v.06c.21,0,.42.1.63.13a.62.62,0,0,0,.27,0c.31-.06.47-.34.68-.53a1.14,1.14,0,0,1,.47-.3.8.8,0,0,1,.67.21c.05,0,0,.18,0,.27a1.64,1.64,0,0,1-.22,0c-.16-.06-.31-.11-.46,0a1,1,0,0,0-.22.19,2.33,2.33,0,0,0-.2.34l.06.06a1,1,0,0,0,.25-.12,3.61,3.61,0,0,1,1.12-.49.66.66,0,0,1,.79.51c0,.16.12.35-.13.42a.49.49,0,0,1-.17,0s0,0,0-.06c.11-.32,0-.45-.3-.48a.59.59,0,0,0-.5.13c-.12.1-.29.16-.42.26a2.12,2.12,0,0,0-.25.26l.44.15a1.59,1.59,0,0,0,.33.08c.4,0,.61.31.82.59s.24.38.37.57a.65.65,0,0,1-.1.77.43.43,0,0,1-.2.07.19.19,0,0,1-.11-.07s0-.08,0-.11c.17-.21.18-.3,0-.51a1.71,1.71,0,0,0-.45-.54,4.35,4.35,0,0,0-1-.45.21.21,0,0,0-.23.32,1.73,1.73,0,0,0,.19.28c.23.31.47.62.7.94a1.5,1.5,0,0,1,.11,1.24.08.08,0,0,1,0,0,.68.68,0,0,1-.66,0,.11.11,0,0,1,0-.12.14.14,0,0,1,.11-.06.33.33,0,0,0,.25-.54c-.22-.35-.43-.7-.65-1a1.32,1.32,0,0,0-.24-.29,4.17,4.17,0,0,0-.36-.37,2.11,2.11,0,0,0-.22-.14l-.05,0c0,.12.07.24.1.35a.83.83,0,0,1-.4,1.1.28.28,0,0,1-.2,0c-.09-.05-.18-.11-.12-.25.4-.05.54-.39.34-.79a2,2,0,0,0-1-.94A16.35,16.35,0,0,1,10.66,21a.44.44,0,0,1-.08-.53.57.57,0,0,1,.13-.21,3.89,3.89,0,0,0,.83-1.14l.47-.68h-.32a6.25,6.25,0,0,1-1-.13,1.44,1.44,0,0,0-.94.09c-.55.17-1.1.33-1.66.46-.91.22-1.83.39-2.73.62A9.51,9.51,0,0,0,3.87,20a5.91,5.91,0,0,0-.94.66,1.9,1.9,0,0,0-.55,1.81,2.1,2.1,0,0,0,.32.72c.07.14.17.26.25.39a2.85,2.85,0,0,0,1,1.05,11.79,11.79,0,0,0,1.75.94,9.27,9.27,0,0,0,3.48.73l4.84.07c.52,0,1,0,1.57,0a4.38,4.38,0,0,1,1.86.33A2.58,2.58,0,0,1,18.69,28a1.14,1.14,0,0,1-.28,1.31,2.31,2.31,0,0,1-.95.51A1.15,1.15,0,0,1,16.48,29.61Z"/></g></g></svg>