<?xml version="1.0" encoding="iso-8859-1"?>
<!-- Generator: Adobe Illustrator 19.0.0, SVG Export Plug-In . SVG Version: 6.00 Build 0)  -->
<svg version="1.1" fill="#F9B225" id="Layer_1" xmlns="http://www.w3.org/2000/svg" xmlns:xlink="http://www.w3.org/1999/xlink" x="0px" y="0px"
	 viewBox="0 0 512.001 512.001" style="enable-background:new 0 0 512.001 512.001;" xml:space="preserve">
<g>
	<g>
		<path d="M280.278,151.339c-12.474,0-22.621,10.148-22.621,22.622s10.147,22.622,22.621,22.622
			c12.475,0,22.622-10.148,22.622-22.622S292.751,151.339,280.278,151.339z M280.278,181.376c-4.088,0-7.414-3.326-7.414-7.415
			c0-4.089,3.326-7.415,7.414-7.415c4.089,0,7.415,3.326,7.415,7.415C287.693,178.049,284.366,181.376,280.278,181.376z"/>
	</g>
</g>
<g>
	<g>
		<path d="M422.262,166.611l-76.226-20.239c-3.534-8.422-8.702-16.16-15.354-22.811c-0.58-0.581-1.168-1.149-1.761-1.703
			c-14.926-13.95-35.223-20.512-55.692-18.008c-20.965,2.566-39.568,14.178-51.039,31.856c-0.639,0.985-1.258,2.07-1.892,3.319
			c-2.112,4.161-9.713,18.781-18.886,32.233c-15.385,22.561-22.396,23.248-23.145,23.252c-0.057,0-0.112,0-0.169,0
			c-37.577,0-128.589-67.91-160.533-94.118c-1.856-1.523-4.325-2.079-6.654-1.5c-2.331,0.579-4.252,2.224-5.18,4.438
			c-7.946,18.948-8.844,63.648,5.141,109.169c7.901,25.719,22.159,57.16,47.746,83.811l-0.241,0.37
			c0.276,0.179,0.698,0.429,1.276,0.715c11.866,12.152,26.125,23.267,43.264,32.332L12.93,476.141
			c-1.483,2.414-1.501,5.451-0.048,7.883c1.378,2.304,3.862,3.701,6.525,3.701c0.147,0,0.295-0.004,0.443-0.013
			c38.012-2.21,71.941-22.875,91.342-55.464c18.795-0.251,37.524-2.24,55.917-5.883c0.037,0,0.073,0.009,0.11,0.009
			c0.648,0,1.306-0.084,1.962-0.257c0.834-0.222,1.663-0.456,2.491-0.691c29.875-6.383,58.797-17.148,85.584-31.996
			c61.309-33.983,92.314-104.336,76.426-172.252c5.221-5.89,9.361-12.513,12.345-19.621l76.235-20.247
			c3.332-0.885,5.652-3.901,5.652-7.349S425.595,167.496,422.262,166.611z M249.883,380.13c-3.413,1.892-6.866,3.706-10.35,5.458
			c28-28.022,45.042-66.372,45.713-107.94l37.308-23.998C323.709,305.148,296.504,354.288,249.883,380.13z M319.928,213.614
			c-1.911,1.911-2.663,4.692-1.977,7.306c1.359,5.179,2.406,10.379,3.164,15.578l-47.573,30.601
			c-2.199,1.415-3.518,3.861-3.489,6.476c0.679,63.59-41.12,119.542-101.999,137.077c-18.786,3.979-37.962,6.145-57.21,6.393
			l-4.19,0.054c-2.714,0.035-5.204,1.515-6.532,3.881l-0.715,1.273c-14.022,24.973-37.704,42.271-65.129,48.196l85.944-139.835
			c1.133-1.844,1.427-4.083,0.808-6.157s-2.092-3.785-4.051-4.706c-11.627-5.465-21.901-11.963-31.005-19.14
			c9.383-0.549,21.621-2.378,37.426-6.501c4.063-1.06,6.498-5.214,5.438-9.276c-1.06-4.062-5.214-6.498-9.276-5.438
			c-31.736,8.28-46.353,6.278-51.238,5.002c-9.003-9.597-16.459-19.846-22.625-30.184c1.432,0.079,2.962,0.126,4.614,0.126
			c9.979,0,24.072-1.594,43.612-6.691c4.063-1.06,6.498-5.214,5.438-9.276c-1.06-4.063-5.213-6.498-9.276-5.438
			c-40.441,10.55-53.093,4.407-53.216,4.343c0.236,0.122,0.34,0.206,0.34,0.206l-0.245,0.377
			c-4.925-10.359-8.69-20.498-11.556-29.824c-0.321-1.046-0.632-2.09-0.937-3.132c1.998,0.168,4.221,0.271,6.71,0.271
			c9.979,0,24.071-1.594,43.611-6.691c4.063-1.06,6.498-5.214,5.438-9.276c-1.06-4.063-5.213-6.498-9.276-5.438
			c-30.364,7.922-45.061,6.431-50.552,5.171c-6.309-28.856-6.227-54.194-3.436-69.562c11.449,9.014,32.542,25.192,56.123,41.204
			c48.02,32.606,83.354,49.136,105.029,49.136c0.077,0,0.155,0,0.231,0c10.437-0.057,21.757-9.555,35.625-29.891
			c9.687-14.204,17.668-29.553,19.882-33.917c0.388-0.764,0.744-1.394,1.089-1.925c9.016-13.895,23.641-23.021,40.13-25.039
			c15.995-1.961,31.831,3.154,43.463,14.026c0.467,0.437,0.93,0.883,1.387,1.341C341.791,156.177,341.791,191.751,319.928,213.614z
			 M350.765,184.564c0.516-3.48,0.793-7.02,0.793-10.603c0-3.58-0.263-7.118-0.778-10.595l39.906,10.596L350.765,184.564z"/>
	</g>
</g>
<g>
	<g>
		<path d="M511.979,172.638c-0.007-0.112-0.004-0.224-0.016-0.338c-0.005-0.047-0.011-0.091-0.016-0.138
			c0-0.005-0.001-0.009-0.002-0.014c-5.558-53.224-27.735-90.178-45.37-111.812c-19.249-23.613-37.194-34.523-37.95-34.977
			c-2.377-1.427-5.346-1.447-7.745-0.048c-2.397,1.399-3.841,3.992-3.768,6.767c1.39,52.992,14.257,93.271,38.262,119.888
			c-9.937,2.383-17.347,11.336-17.347,21.994c0,10.208,6.797,18.854,16.103,21.661c-23.202,26.621-35.653,66.406-37.018,118.471
			c-0.073,2.775,1.372,5.368,3.768,6.767c1.185,0.691,2.509,1.036,3.832,1.036c1.354,0,2.71-0.362,3.912-1.084
			c0.755-0.453,18.7-11.363,37.95-34.977c17.635-21.634,39.812-58.589,45.37-111.812c0.001-0.005,0.001-0.01,0.002-0.014
			c0.005-0.047,0.011-0.091,0.016-0.138c0.011-0.112,0.009-0.225,0.016-0.338c0.01-0.149,0.022-0.298,0.022-0.448
			S511.989,172.787,511.979,172.638z M453.237,173.961c0-4.089,3.326-7.415,7.414-7.415c4.089,0,7.415,3.326,7.415,7.415
			c0,4.089-3.326,7.415-7.415,7.415C456.563,181.376,453.237,178.049,453.237,173.961z M455.213,275.705
			c-8.047,9.948-15.897,17.482-22.061,22.739c3.443-43.448,16.182-77.099,37.204-97.925c9.19-9.106,18.353-14.13,25-16.851
			C488.545,226.857,470.106,257.298,455.213,275.705z M470.356,145.65c-21.022-20.825-33.761-54.476-37.204-97.924
			c6.164,5.258,14.012,12.791,22.06,22.739c14.893,18.408,33.332,48.849,40.144,92.036
			C488.708,159.78,479.546,154.756,470.356,145.65z"/>
	</g>
</g>
<g>
</g>
<g>
</g>
<g>
</g>
<g>
</g>
<g>
</g>
<g>
</g>
<g>
</g>
<g>
</g>
<g>
</g>
<g>
</g>
<g>
</g>
<g>
</g>
<g>
</g>
<g>
</g>
<g>
</g>
</svg>
