<?xml version="1.0" encoding="iso-8859-1"?>
<!-- Generator: Adobe Illustrator 19.0.0, SVG Export Plug-In . SVG Version: 6.00 Build 0)  -->
<svg version="1.1" id="Layer_1" xmlns="http://www.w3.org/2000/svg" xmlns:xlink="http://www.w3.org/1999/xlink" x="0px" y="0px"
	 fill="#F9B225" viewBox="0 0 512 512" style="enable-background:new 0 0 512 512;" xml:space="preserve">
<g>
	<g>
		<g>
			<path d="M473.639,165.303V23.528c0-4.462-2.38-8.585-6.245-10.816c-3.864-2.231-8.625-2.231-12.489,0L346.304,75.413
				c-28.848-9.339-59.196-14.07-90.305-14.07s-61.457,4.731-90.305,14.07l-108.6-62.702c-3.864-2.231-8.625-2.231-12.489,0
				c-3.864,2.231-6.245,6.353-6.245,10.816v141.777C13.25,200.033,0,239.998,0,281.152C0,340.25,26.889,395.689,75.716,437.26
				c48.25,41.08,112.276,63.703,180.285,63.703s132.035-22.623,180.285-63.703C485.111,395.691,512,340.251,512,281.152
				C512,239.997,498.75,200.033,473.639,165.303z M256.001,475.984c-127.386,0-231.022-87.401-231.022-194.832
				c0-37.041,12.397-73.083,35.849-104.229c1.631-2.164,2.513-4.802,2.513-7.512V45.159l94.741,54.699
				c3.137,1.812,6.908,2.171,10.331,0.987c27.832-9.637,57.301-14.524,87.588-14.524c30.288,0,59.756,4.887,87.588,14.524
				c3.422,1.185,7.193,0.826,10.331-0.987l94.741-54.699v124.253c0,2.71,0.882,5.348,2.513,7.512
				c23.452,31.146,35.849,67.187,35.849,104.229C487.022,388.583,383.386,475.984,256.001,475.984z"/>
			<circle cx="174.512" cy="206.31" r="12.489"/>
			<circle cx="337.497" cy="206.31" r="12.489"/>
			<path d="M411.193,154.894c6.898,0,12.489-5.591,12.489-12.489v-32.351c0-6.898-5.591-12.489-12.489-12.489
				s-12.489,5.591-12.489,12.489v32.35C398.704,149.303,404.295,154.894,411.193,154.894z"/>
			<path d="M100.807,154.894c6.898,0,12.489-5.591,12.489-12.489v-32.351c0-6.898-5.591-12.489-12.489-12.489
				c-6.898,0-12.489,5.591-12.489,12.489v32.35C88.318,149.303,93.909,154.894,100.807,154.894z"/>
			<path d="M155.951,274.062l-59.128-15.403c-6.676-1.733-13.496,2.263-15.234,8.937c-1.739,6.676,2.263,13.496,8.937,15.234
				l59.128,15.403c1.055,0.275,2.114,0.406,3.157,0.406c5.548,0,10.613-3.724,12.077-9.343
				C166.626,282.622,162.625,275.801,155.951,274.062z"/>
			<path d="M149.654,324.02l-59.128,15.403c-6.674,1.74-10.676,8.56-8.937,15.234c1.464,5.62,6.529,9.343,12.077,9.343
				c1.042,0,2.102-0.131,3.157-0.406l59.128-15.403c6.674-1.74,10.676-8.56,8.937-15.234
				C163.148,326.28,156.327,322.28,149.654,324.02z"/>
			<path d="M347.112,289.296c1.464,5.62,6.529,9.343,12.077,9.343c1.042,0,2.102-0.131,3.157-0.406l59.128-15.403
				c6.674-1.74,10.676-8.56,8.937-15.234c-1.739-6.674-8.559-10.675-15.234-8.937l-59.128,15.403
				C349.375,275.801,345.374,282.622,347.112,289.296z"/>
			<path d="M421.474,339.423l-59.128-15.403c-6.675-1.742-13.495,2.262-15.234,8.937c-1.739,6.674,2.263,13.496,8.937,15.234
				l59.128,15.403c1.057,0.275,2.114,0.406,3.157,0.406c5.548,0,10.613-3.724,12.077-9.343
				C432.151,347.983,428.148,341.161,421.474,339.423z"/>
			<path d="M322.609,379.202h-22.481c-14.185,0-26.219-9.383-30.223-22.268c5.153-2.424,9.665-6.177,12.996-11.001l17.652-25.572
				c4.9-7.098,5.453-16.251,1.445-23.888c-4.008-7.636-11.855-12.381-20.479-12.381H230.48c-8.624,0-16.471,4.743-20.479,12.381
				c-4.008,7.637-3.455,16.791,1.445,23.888l17.652,25.572c3.33,4.823,7.842,8.576,12.996,11.001
				c-4.004,12.885-16.037,22.268-30.223,22.268h-22.481c-6.898,0-12.489,5.591-12.489,12.489s5.591,12.489,12.489,12.489h22.481
				c17.825,0,33.743-8.288,44.128-21.204c10.386,12.916,26.304,21.204,44.128,21.204h22.481c6.898,0,12.489-5.591,12.489-12.489
				S329.507,379.202,322.609,379.202z M256.001,335.074c-1.216,0-4.271-0.325-6.347-3.331l-15.65-22.67h43.993l-15.65,22.67
				C260.271,334.749,257.217,335.074,256.001,335.074z"/>
		</g>
	</g>
</g>
<g>
</g>
<g>
</g>
<g>
</g>
<g>
</g>
<g>
</g>
<g>
</g>
<g>
</g>
<g>
</g>
<g>
</g>
<g>
</g>
<g>
</g>
<g>
</g>
<g>
</g>
<g>
</g>
<g>
</g>
</svg>
