<svg xmlns="http://www.w3.org/2000/svg" viewBox="0 0 160.14 160"><defs><style>.cls-1{fill:#f2f2f2;}.cls-2{fill:#e6e6e6;}.cls-3{fill:#fff;}.cls-4{fill:#ccc;}.cls-5{fill:#f9b225;}.cls-6{fill:#d11149;}.cls-7{fill:#cacaca;}.cls-8{fill:#ffb8b8;}.cls-9{fill:#3f3d3b;}.cls-10{fill:#2f2e41;}</style></defs><title>icono_notificaciones</title><g id="Capa_2" data-name="Capa 2"><g id="Capa_1-2" data-name="Capa 1"><path id="fa3b9e12-7275-481e-bee9-64fd9595a50d-345" class="cls-1" d="M15.34,134.79l-1.4-5.54a69.52,69.52,0,0,0-7.64-2.74l-.18,2.57-.71-2.84C2.19,125.32,0,124.92,0,124.92s3,11.24,9.16,19.84L16.38,146l-5.61.81a28.7,28.7,0,0,0,2.51,2.66c9,8.38,19.06,12.22,22.44,8.58s-1.21-13.36-10.23-21.73A38.2,38.2,0,0,0,15.67,130Z"/><path id="bde08021-c30f-4979-a9d8-cb90b72b5ca2-346" class="cls-1" d="M28.7,128.77l1.66-5.47A69.92,69.92,0,0,0,25.24,117l-1.48,2.11.85-2.8c-2.28-2.45-3.94-3.93-3.94-3.93s-3.28,11.15-2.42,21.72l5.53,4.82-5.22-2.21a28.7,28.7,0,0,0,.77,3.57c3.4,11.83,10,20.31,14.78,19s5.88-12.07,2.48-23.9a38.38,38.38,0,0,0-5.14-10.48Z"/><path id="b3ac2088-de9b-4f7f-bc99-0ed9705c1a9d-347" class="cls-2" d="M111.31,37.9h-.87v-24A13.9,13.9,0,0,0,96.54,0H45.68a13.9,13.9,0,0,0-13.9,13.9V145.61a13.9,13.9,0,0,0,13.9,13.9H96.54a13.91,13.91,0,0,0,13.9-13.9V55h.87Z"/><path id="b2715b96-3117-487c-acc0-20904544b5b7-348" class="cls-3" d="M97.1,3.61H90.46a4.94,4.94,0,0,1-4.56,6.8H56.76a4.93,4.93,0,0,1-4.93-4.93,5,5,0,0,1,.36-1.87H46A10.38,10.38,0,0,0,35.61,14h0V145.51A10.38,10.38,0,0,0,46,155.89H97.1a10.38,10.38,0,0,0,10.38-10.38h0V14A10.38,10.38,0,0,0,97.1,3.61Z"/><path id="b06d66ec-6c84-45dd-8c27-1263a6253192-349" class="cls-4" d="M65,56a5.24,5.24,0,0,1,2.62-4.54,5.23,5.23,0,1,0,0,9.07A5.22,5.22,0,0,1,65,56Z"/><path id="e73810fe-4cf4-40cc-8c7c-ca544ce30bd4-350" class="cls-4" d="M71.62,56a5.22,5.22,0,0,1,2.62-4.54,5.24,5.24,0,1,0,0,9.07A5.22,5.22,0,0,1,71.62,56Z"/><circle id="a4813fcf-056e-4514-bb8b-e6506f49341f" class="cls-5" cx="78.05" cy="56.01" r="5.24"/><path id="bbe451c3-febc-41ba-8083-4c8307a2e73e-351" class="cls-4" d="M86.8,72.36H56.28a1.09,1.09,0,0,1-1.09-1.1V40.75a1.09,1.09,0,0,1,1.09-1.1H86.8a1.1,1.1,0,0,1,1.1,1.1V71.26A1.1,1.1,0,0,1,86.8,72.36ZM56.28,40.09a.65.65,0,0,0-.65.66V71.27a.65.65,0,0,0,.65.65H86.8a.66.66,0,0,0,.66-.65V40.75a.66.66,0,0,0-.66-.66Z"/><rect id="bb28937d-932f-4fdf-befe-f406e51091fe" class="cls-4" x="46.81" y="95.75" width="46.81" height="0.44"/><circle id="fcef55fc-4968-45b2-93bb-1a1080c85fc7" class="cls-6" cx="48.29" cy="91.54" r="1.48"/><rect id="ff33d889-4c74-4b91-85ef-b4882cc8fe76" class="cls-4" x="46.81" y="110.54" width="46.81" height="0.44"/><circle id="e8fa0310-b872-4adf-aedd-0c6eda09f3b8" class="cls-6" cx="48.29" cy="106.32" r="1.48"/><path class="cls-5" d="M92.76,127.37H78a1,1,0,0,1-1-1v-5.18a1,1,0,0,1,1-1H92.76a1,1,0,0,1,1,1v5.18A1,1,0,0,1,92.76,127.37Z"/><circle id="e12ee00d-aa4a-4413-a013-11d20b7f97f7" class="cls-6" cx="53.11" cy="91.54" r="1.48"/><circle id="f58f497e-6949-45c8-be5f-eee2aa0f6586" class="cls-6" cx="57.93" cy="91.54" r="1.48"/><circle id="b4d4939a-c6e6-4f4d-ba6c-e8b05485017d" class="cls-6" cx="53.11" cy="106.32" r="1.48"/><circle id="aff120b1-519b-4e96-ac87-836aa55663de" class="cls-6" cx="57.93" cy="106.32" r="1.48"/><path id="f1094013-1297-477a-ac57-08eac07c4bd5-352" class="cls-7" d="M158.93,160H5.16c-.33,0-.6-.12-.6-.26s.27-.26.6-.26H158.93c.33,0,.59.12.59.26S159.26,160,158.93,160Z"/><path class="cls-8" d="M113.28,62.17a3.5,3.5,0,0,1,.54.29l17-7.25.61-4.47,6.79,0L137.8,61l-22.43,5.93a3.57,3.57,0,0,1-.16.46,3.88,3.88,0,1,1-1.93-5.18Z"/><polygon class="cls-8" points="140.66 155.17 136.02 155.17 133.81 137.26 140.67 137.26 140.66 155.17"/><path class="cls-9" d="M132.71,153.84h8.95v5.64H127.07A5.63,5.63,0,0,1,132.71,153.84Z"/><polygon class="cls-8" points="158.72 153.85 154.1 154.31 150.15 136.7 156.97 136.03 158.72 153.85"/><path class="cls-9" d="M150.67,153.31l8.91-.87h0l.56,5.61h0l-14.53,1.43h0A5.65,5.65,0,0,1,150.67,153.31Z"/><circle class="cls-8" cx="141.96" cy="22.44" r="9.3"/><path class="cls-9" d="M135,151.54a1.68,1.68,0,0,1-1.67-1.4c-2.4-13.34-10.26-57-10.44-58.17a.22.22,0,0,1,0-.08V88.64a.61.61,0,0,1,.1-.33l1-1.46a.54.54,0,0,1,.44-.23c5.91-.28,25.29-1.09,26.23.07h0c.94,1.18.6,4.74.53,5.44v.08l8.71,55.67a1.71,1.71,0,0,1-1.41,1.94l-5.44.9a1.72,1.72,0,0,1-1.9-1.17c-1.68-5.38-7.32-23.45-9.28-30.45a.18.18,0,0,0-.23-.13.2.2,0,0,0-.14.19c.1,6.66.34,23.67.42,29.55v.63a1.72,1.72,0,0,1-1.55,1.72l-5.25.48Z"/><path id="ae7af94f-88d7-4204-9f07-e3651de85c05-353" class="cls-6" d="M136.05,35.4a7.82,7.82,0,0,0-3.15,4.54,43.36,43.36,0,0,0-1.85,10.29l-.59,10.45-7.29,27.71c6.32,5.35,10,4.14,18.48-.24s9.48,1.46,9.48,1.46L152.83,66l2.43-25.76a11.84,11.84,0,0,0-1.84-1.77,18.82,18.82,0,0,0-16.08-3.41Z"/><path class="cls-8" d="M133.69,67.76a4.11,4.11,0,0,1,.56.27l16.8-8.41.28-4.55,6.93-.48L158.63,65l-22.45,7.42a4,4,0,1,1-3-4.77l.48.14Z"/><path id="a6768b0e-63d0-4b31-8462-9b2e0b00f0fd-354" class="cls-6" d="M155.14,40.38c4.13,1.46,4.86,17.26,4.86,17.26-4.87-2.67-10.7,1.71-10.7,1.71s-1.21-4.14-2.67-9.48a9.31,9.31,0,0,1,1.94-8.76S151,38.92,155.14,40.38Z"/><path id="bfd7963f-0cf8-4885-9d3a-2c00bccda2e3-355" class="cls-10" d="M150.3,24.9c-1.16-.93-2.74.76-2.74.76l-.93-8.35s-5.79.7-9.5-.23-4.29,3.36-4.29,3.36a30.22,30.22,0,0,1-.12-5.21c.23-2.09,3.25-4.17,8.58-5.56s8.11,4.63,8.11,4.63C153.12,16.16,151.46,25.83,150.3,24.9Z"/></g></g></svg>