<svg xmlns="http://www.w3.org/2000/svg" viewBox="0 0 76.19 76.19"><defs><style>.cls-1{fill:#f9b225;}.cls-2{fill:#fff;}</style></defs><title>pestaña_icono_logo</title><g id="Capa_2" data-name="Capa 2"><g id="Capa_1-2" data-name="Capa 1"><path class="cls-1" d="M68.68,76.19H7.51A7.51,7.51,0,0,1,0,68.68V7.51A7.51,7.51,0,0,1,7.51,0H68.68a7.51,7.51,0,0,1,7.51,7.51V68.68A7.51,7.51,0,0,1,68.68,76.19Z"/><g id="Capa_2-2" data-name="Capa 2"><g id="Capa_1-2-2" data-name="Capa 1-2"><path class="cls-2" d="M38.09,24.78A17.31,17.31,0,0,0,20.8,42.12h0c0,9.57,7.19,19.7,17.29,24.69,9.77-5,17.3-15.12,17.3-24.69A17.32,17.32,0,0,0,38.1,24.78Zm0,23.21A5.87,5.87,0,1,1,44,42.11h0A5.86,5.86,0,0,1,38.12,48h0Z"/><circle class="cls-2" cx="54.61" cy="22.79" r="4.78"/><ellipse class="cls-2" cx="32.09" cy="14.9" rx="4.78" ry="5.52"/><ellipse class="cls-2" cx="43.43" cy="14.9" rx="4.78" ry="5.52"/><circle class="cls-2" cx="21.57" cy="23.4" r="4.78"/></g></g></g></g></svg>