<?xml version="1.0" ?><svg  fill="#F9B225" id="outline" viewBox="0 0 340 340" xmlns="http://www.w3.org/2000/svg"><title/><path d="M255.248,308.742c45.71-11.983,66.066-37.026,74.848-56.9a44.1,44.1,0,0,0-2.308-40.064,3.959,3.959,0,0,0-.257-.5,43.09,43.09,0,0,0-5.913-7.628c.436-.017.876-.026,1.322-.017a4,4,0,1,0,.167-8,36.4,36.4,0,0,0-9.68,1.215c-.4-.284-.806-.568-1.219-.847q-3.569-2.436-7.367-4.529a25.714,25.714,0,0,1,6.239-.584,4.142,4.142,0,0,0,4.3-3.414,4,4,0,0,0-3.819-4.575,32.655,32.655,0,0,0-16.568,3.74c-3.447-1.484-6.939-2.787-10.42-3.955a36.3,36.3,0,0,1,4.187-1.408,4.134,4.134,0,0,0,3.1-4.53,4,4,0,0,0-4.983-3.248,34.892,34.892,0,0,0-12.891,6.04c-3.419-.89-6.758-1.645-9.971-2.291a22.791,22.791,0,0,1,5.543-2.883,4.069,4.069,0,0,0,2.71-4.618,4,4,0,0,0-5.179-2.992,36.157,36.157,0,0,0-12.191,7.529,5.687,5.687,0,0,0-1.554,6.078l.034.1a5.7,5.7,0,0,0,4.385,3.75,171.166,171.166,0,0,1,25.608,6.5,53.934,53.934,0,0,0-8.655,11.037,4.092,4.092,0,0,0,.67,5.144,4,4,0,0,0,6.131-.929,44.913,44.913,0,0,1,10.112-11.938c11.41,1.163,25.131,16.144,25.221,16.245a50.647,50.647,0,0,0-19.759,8.516,4.133,4.133,0,0,0-1.28,5.4,4,4,0,0,0,5.789,1.208,43.034,43.034,0,0,1,20.261-7.821,36.079,36.079,0,0,1,.921,31.035,81.6,81.6,0,0,1-6,11.138c-7.076-6.6-17.912-9.217-26.511-10.216.1-.234.218-.463.316-.7a4,4,0,0,0-2.565-5.374,4.122,4.122,0,0,0-4.886,2.457,36.7,36.7,0,0,1-2.7,5.154,48.337,48.337,0,0,1-9.773,11.012c-.077.066-.145.139-.217.209a85.934,85.934,0,0,1-18.431,11.5q-3.711,1.764-7.546,3.247c-.018.006-.036.008-.054.015a116.411,116.411,0,0,1-22.074,6.087c-.04.007-.075.023-.115.031a123.767,123.767,0,0,1-16.343,1.7c-55.552,2.078-93.716-10.375-93.717-10.375s-3.3-.944-4.906,1.8a3.748,3.748,0,0,0,.525,4.621,73.12,73.12,0,0,0,10.666,7.379c26.718,16.15,60.155,22.081,84.827,24.14C203.268,312.425,233.613,314.414,255.248,308.742Zm30.688-51.508c.017-.025.037-.049.054-.074,7.164.533,19.721,2.436,26.075,9.162a87.278,87.278,0,0,1-18.856,17.539,37.93,37.93,0,0,0-13.393-19.321A53.986,53.986,0,0,0,285.936,257.234Zm-30.495,23.774a97.116,97.116,0,0,0,18.18-11.014c7.783,5.055,11.117,12.768,12.539,18.314a121.41,121.41,0,0,1-29.84,11.908,52.477,52.477,0,0,0-4.794-17.442C252.84,282.206,254.147,281.623,255.441,281.008Zm-28.02,9.319a122.868,122.868,0,0,0,16.632-4.607,45.336,45.336,0,0,1,4.409,16.321,150.719,150.719,0,0,1-20.823,2.707l-.244.015A80.614,80.614,0,0,0,227.421,290.327Zm-47.242,2.632c8.031.247,16.7.244,25.993-.105a132.91,132.91,0,0,0,13.328-1.168,74.59,74.59,0,0,1-.175,13.349q-7.609.061-15.392-.583c-6.548-.546-14.79-1.487-23.866-3.1A38.539,38.539,0,0,0,180.179,292.959Zm-8.079-.347a31.506,31.506,0,0,1,.1,7.2,184.191,184.191,0,0,1-35.448-11.1A302.236,302.236,0,0,0,172.1,292.612Z"/><path d="M7.233,56.727a12.49,12.49,0,0,0,.139,10.424,16,16,0,0,0,3.337,4.595c1.017,4.813,4.75,12.046,13.7,13.193.67.125,7.537,1.5,16.937,6.807a24.88,24.88,0,0,1,2.444,8.446,19.583,19.583,0,0,1-.134,4.285c-.429,3.51-.783,12.433,5.19,19.471,4.737,5.582,12.2,8.624,22.22,9.041a52.076,52.076,0,0,1,9.628,1.434,107,107,0,0,1,6.165,15.807L71.871,163.156a25.376,25.376,0,0,0-8,12.814c-1.989,7.559-4.5,16.482-4.524,16.571a4,4,0,0,0,3.851,5.083,11.447,11.447,0,0,1,10,5.071,31.51,31.51,0,0,0-15.522.328,23.811,23.811,0,0,1-17.394-1.629,3.942,3.942,0,0,0-.536-.268,28.68,28.68,0,0,0-8.123-1.771,13.28,13.28,0,0,1,4.391-1.666,23.746,23.746,0,0,0,13.65-.337A4,4,0,0,0,52.2,194c1.085-11.624,2.788-21.935,4.026-28.537a44.124,44.124,0,0,1,5.269-14.129l4.94-8.479a4,4,0,0,0-6.912-4.027l-4.94,8.479a52.137,52.137,0,0,0-6.221,16.682c-1.165,6.216-2.732,15.639-3.843,26.376a18.393,18.393,0,0,1-7.151-.589,4.048,4.048,0,0,0-1.328-.14,21.642,21.642,0,0,0-16.9,11.869,4,4,0,0,0,3.925,5.815c2.387-.22,9.373-.437,13.441,1.129a32.15,32.15,0,0,0,23.332,2.281,24.773,24.773,0,0,1,17.9,2.113,4,4,0,0,0,6.08-3.822c-.617-5.863-4.683-16.294-15.513-18.827.917-3.316,2.188-7.959,3.3-12.184a17.415,17.415,0,0,1,5.49-8.792l12.416-10.707c5.846,15.962,19.374,39.155,50.2,52.124a4,4,0,1,0,3.1-7.374c-32.15-13.525-43.668-39.19-47.672-53.284a115.091,115.091,0,0,0-8-20.524,3.936,3.936,0,0,0-.208-.416A103.872,103.872,0,0,0,79,115.913q-.7-.983-1.41-1.934a4,4,0,1,0-6.421,4.772q.662.891,1.321,1.813c1.114,1.558,2.167,3.172,3.191,4.81-2.473-.308-4.18-.374-4.307-.379-7.668-.319-13.2-2.414-16.43-6.224-3.927-4.627-3.649-10.858-3.348-13.323a49.338,49.338,0,0,0,.05-6.844q2.16,1.671,4.382,3.615c1.175,1.351,5.916,6.294,12.63,6.547.181.007.362.011.541.011,4.239,0,8.181-1.895,11.727-5.639a15.8,15.8,0,0,0,4.459-9.528,15.356,15.356,0,0,0-6.123-13.736c7.687-15.162-.6-25.064-.986-25.509a4.022,4.022,0,0,0-5.659-.43,3.976,3.976,0,0,0-.427,5.621c.233.286,5.26,6.664-.343,17.24a15.545,15.545,0,0,0-9.971,1.936,24.444,24.444,0,0,0-3.732,2.683,13.777,13.777,0,0,0-4.707,8.552c-15.1-10.774-27.206-12.838-27.8-12.933-.05-.009-.1-.016-.15-.022a7.534,7.534,0,0,1-6.111-4.444,58.533,58.533,0,0,1,27.492.985,4,4,0,0,0,2.207-7.69,66.244,66.244,0,0,0-33.507-.632,7.681,7.681,0,0,1-.981-1.532,4.449,4.449,0,0,1-.03-3.757,4.967,4.967,0,0,1,3.091-2.756A113.214,113.214,0,0,0,46.986,43.38a10.549,10.549,0,0,1,9.644-1.059c7.562,2.918,17.129,4.779,23.824,5.827a11.269,11.269,0,0,1,6.989,3.981c9.237,11.261,24.933,24.508,25.6,25.066.081.069.165.134.251.2a27.492,27.492,0,0,1,8.925,11.922c.715,2.131,1.626,7.3-.11,9.745-.3.417-1.2,1.686-4.693,1.72-.625.015-15.43.382-25.161,2.544a4,4,0,1,0,1.735,7.81c1.538-.342,3.241-.635,5-.887a10.806,10.806,0,0,1-2.074,4.3,20.264,20.264,0,0,0-3.336,5.62,14.466,14.466,0,0,0-1.091,6,4,4,0,0,0,3.99,3.778q.111,0,.225-.006a4,4,0,0,0,3.772-4.215,6.945,6.945,0,0,1,.564-2.669,12.359,12.359,0,0,1,2.034-3.4,19.948,19.948,0,0,0,4.185-10.3c5.621-.455,10.234-.569,10.286-.571,6.212-.061,9.454-2.8,11.079-5.082,4.533-6.373,1.529-15.877,1.171-16.94v0h0a30.689,30.689,0,0,0-1.777-3.978,24.144,24.144,0,0,0,4.828-1.523,4,4,0,1,0-3.175-7.342,14.1,14.1,0,0,1-6.958,1.249,30.286,30.286,0,0,0-4.636-4.178c-.211-.179-.716-.609-1.44-1.236a19.87,19.87,0,0,0,6.534-3.526,4,4,0,0,0-5.084-6.176,14.667,14.667,0,0,1-9.031,2.907c-1.869-1.731-3.882-3.642-5.9-5.635a22.361,22.361,0,0,0,8.119-4.1,4,4,0,1,0-5.207-6.074c-2.331,2-6.634,3.012-9.4,3.43-1.071-1.186-2.094-2.363-3.035-3.51-.221-.27-.463-.519-.7-.775A38.082,38.082,0,0,0,107.554,33.4a4,4,0,0,0-6.737-4.316c-4.73,7.385-12.836,10.886-15.846,11.979a19.427,19.427,0,0,0-3.008-.761,18.227,18.227,0,0,0,4.945-7.859,4,4,0,0,0-7.631-2.4c-1.681,5.341-7.194,7.4-9.169,7.973a82.373,82.373,0,0,1-10.6-3.154,18.564,18.564,0,0,0-16.963,1.867A105.094,105.094,0,0,1,15.3,49.538,12.953,12.953,0,0,0,7.233,56.727ZM63.384,87.461a16.313,16.313,0,0,1,2.5-1.8,7.615,7.615,0,0,1,8.062.254,7.335,7.335,0,0,1,3.475,6.945,7.887,7.887,0,0,1-2.3,4.782c-2.061,2.176-4.076,3.2-6.122,3.136-2.872-.092-5.579-2.357-6.716-3.567C61.657,95.73,59.832,90.538,63.384,87.461Z"/><path d="M135.9,98.084c2.6,2.276,33.124,23.385,49.8,51.783a28.566,28.566,0,0,1,1.408,2.9l.006.015a87.731,87.731,0,0,0,12.148,20.56c.034.05.075.095.111.144.233.293.46.589.7.88-2.734,5.188-.964,12.163-.7,13.107a4,4,0,0,0,5.231,2.7,4.1,4.1,0,0,0,2.46-4.9c-.481-1.811-.774-5.054-.081-6.818,3.912.313,12.577.951,20.019,1.113a14.59,14.59,0,0,1,10.809,5.149A256.583,256.583,0,0,1,257.8,211.477a32.13,32.13,0,0,0,12.1,11.115,57.011,57.011,0,0,1,12.278,8.472c-3.855.467-8.824.552-13.058-1.045a21,21,0,0,0-11.157-1.148c-4.45.815-13.678,2.106-21.363.575a57.431,57.431,0,0,1,10.252-2.817,4,4,0,0,0,3.039-5.352c-.262-.692-6.573-17.079-21.05-28.163a4,4,0,0,0-3.5-.679,23.818,23.818,0,0,1-7.831.523,4.078,4.078,0,0,0-4.419,3.063,4,4,0,0,0,3.447,4.879,32.022,32.022,0,0,0,8.851-.31,57.52,57.52,0,0,1,10.353,11.452H186.669c-1.6-.05-3.19-.128-4.765-.225a115.758,115.758,0,0,0,.519-18.131,23.687,23.687,0,0,0-3.831-11.421c-5.24-8.072-15.912-22.907-28.622-31.747a4.08,4.08,0,0,0-5.159.312,4,4,0,0,0,.489,6.185c12.066,8.348,22.609,23.485,26.582,29.606a15.683,15.683,0,0,1,2.556,7.55c1,16.512-3.61,36.263-3.657,36.461a4.009,4.009,0,0,0,1.715,4.279,4.133,4.133,0,0,0,1.966.637,32.356,32.356,0,0,0,13.98-2.478,28.338,28.338,0,0,1,1.295,5.452,14.731,14.731,0,0,0-6.364-.9,4,4,0,0,0-2.833,1.6c-5.793,7.808-16.583,5.694-17.024,5.6a3.983,3.983,0,0,0-2.563.3,27.776,27.776,0,0,0-8.45,6.856,22.693,22.693,0,0,1,1.691-7.492,4,4,0,0,0-1.58-5.418c-5.226-2.884-11.3-3.114-16.283-2.541a14.177,14.177,0,0,1,6.433-4.318c5.928-1.784,11.541,1.7,11.577,1.72a4.006,4.006,0,0,0,4.879-.4,4.185,4.185,0,0,0,1.27-2.459,83.142,83.142,0,0,0-.341-28.313,26.031,26.031,0,0,0-7.942-14.186l-11.4-10.487a27.422,27.422,0,0,1-8.761-17.392,6.168,6.168,0,0,1,.758-3.684,4.115,4.115,0,0,0-.466-4.952,4.008,4.008,0,0,0-6.322.714,14.1,14.1,0,0,0-1.931,8.711,35.268,35.268,0,0,0,11.244,22.433l11.462,10.545a17.975,17.975,0,0,1,5.5,9.789,74.561,74.561,0,0,1,.931,20.536,21.845,21.845,0,0,0-12.65-.267c-6.809,2.008-12.279,7.492-16.258,16.3a4.115,4.115,0,0,0,.061,3.621,4.009,4.009,0,0,0,4.976,1.864c.1-.039,8.949-3.367,16.264-1.46-1.045,3.871-1.97,10.391-.526,19.6a4.146,4.146,0,0,0,2.677,3.307,4,4,0,0,0,4.833-1.912c1.449-2.734,6.035-10.009,10.8-12.948,4.013.507,14.8.95,22.193-7.232a4.877,4.877,0,0,1,3.909,2.75,4,4,0,0,0,7.386-.182c.358-.926,3.323-9.418-2.7-22.269a4,4,0,0,0-5.637-1.757,30.507,30.507,0,0,1-8.9,3.112c.392-2.055.843-4.64,1.274-7.554,1.838.118,3.692.217,5.563.275.041,0,.083,0,.125,0h53.126a54.6,54.6,0,0,0-15.138,6.421,3.993,3.993,0,0,0-.017,6.611c9.913,6.926,26.072,5.27,34.828,3.667a13.031,13.031,0,0,1,6.892.763,32.01,32.01,0,0,0,11.228,1.846,50.24,50.24,0,0,0,13.378-1.888,4.011,4.011,0,0,0,2.826-4.044,4.075,4.075,0,0,0-.769-2.141c-5.154-7.34-13.357-12.624-19.34-15.767a24.126,24.126,0,0,1-9.08-8.344,264.419,264.419,0,0,0-20.63-27.622,22.592,22.592,0,0,0-3.134-3.031,21.244,21.244,0,0,0,8.221-8.74,4.1,4.1,0,0,0-1.246-5.126,4,4,0,0,0-5.942,1.609c-2.172,4.749-8.119,7.1-10.348,7.831a22.632,22.632,0,0,0-4.3-.516c-1.6-.035-3.262-.094-4.93-.167a24.986,24.986,0,0,0,6.455-8.67,4.064,4.064,0,0,0-1.207-5,4,4,0,0,0-6,1.53c-4.862,10.418-13.458,9.217-16.5,8.4a81.152,81.152,0,0,1-5.305-7.767,14.81,14.81,0,0,0,4.052-.79,4.1,4.1,0,0,0,2.785-4.5,4,4,0,0,0-5.311-3.093,7.673,7.673,0,0,1-6.136-.529,46.734,46.734,0,0,0-2.535-5.618,17.53,17.53,0,0,0,7.036-1.939,4.121,4.121,0,0,0,2.151-4.861,4,4,0,0,0-5.712-2.306,10.889,10.889,0,0,1-8.731.458q-1.839-2.625-3.9-5.182a24.872,24.872,0,0,0,8.5-4.009,10.963,10.963,0,0,1,7.463-2.132,4,4,0,0,0,1.438-7.87,18.719,18.719,0,0,0-13.549,3.491c-5.288,3.776-9.457,3.214-10.411,3.016-2.085-2.218-4.247-4.389-6.453-6.51a18.548,18.548,0,0,0,4.207-1.907,4.109,4.109,0,0,0,1.743-5.013,4,4,0,0,0-5.866-1.845,14.82,14.82,0,0,1-7.566,1.869q-2.456-2.182-4.9-4.28a21.086,21.086,0,0,0,6.444-2.783,4.092,4.092,0,0,0,1.538-5.039,4,4,0,0,0-5.922-1.654c-2.858,1.971-7.491,2.472-10.262,2.523-1.21-1.018-2.385-2.008-3.535-2.981a68.481,68.481,0,0,0,17.178-10.742,4.088,4.088,0,0,0,.96-5.1,4,4,0,0,0-6.117-1.021,62.632,62.632,0,0,1-20.857,11.679A4.27,4.27,0,0,0,135.9,98.084Z"/><path d="M50.906,49l-2.63.532a4,4,0,1,0,1.584,7.841l2.63-.531A4,4,0,1,0,50.906,49Z"/></svg>
