<?xml version="1.0" encoding="iso-8859-1"?>
<!-- Generator: Adobe Illustrator 19.0.0, SVG Export Plug-In . SVG Version: 6.00 Build 0)  -->
<svg fill="#F9B225" version="1.1" id="Layer_1" xmlns="http://www.w3.org/2000/svg" xmlns:xlink="http://www.w3.org/1999/xlink" x="0px" y="0px"
	 viewBox="0 0 512 512" style="enable-background:new 0 0 512 512;" xml:space="preserve">
<g>
	<g>
		<path d="M488.565,370.451l-119.847,29.961c48.932-35.754,79.601-93.369,79.601-157.1c0-18.919-2.726-37.212-7.786-54.518
			C483.301,177.795,512,145.387,512,107.97c0-46.639-45.532-84.589-101.506-84.589c-34.515,0-66.863,14.849-85.421,38.908
			c-22.091-8.731-46.148-13.531-71.307-13.531c-23.85,0-46.707,4.322-67.842,12.211c-18.704-23.289-50.522-37.588-84.417-37.588
			C45.533,23.382,0,61.331,0,107.97c0,36.2,26.863,67.708,67.338,79.682c-5.276,17.643-8.126,36.324-8.126,55.66
			c0,63.875,30.583,121.371,79.455,157.063l-119.7-29.924c-4.552-1.156-9.128,1.619-10.251,6.154
			c-1.14,4.527,1.619,9.12,6.154,10.251l160.993,40.248L66.2,446.456c-4.601,0.81-7.674,5.196-6.856,9.797
			c0.719,4.105,4.287,6.988,8.318,6.988c0.487,0,0.983-0.041,1.479-0.132l134.602-23.753c4.07,27.925,24.943,49.262,50.022,49.262
			s45.954-21.337,50.022-49.262L438.39,463.11c0.496,0.091,0.991,0.132,1.479,0.132c4.031,0,7.6-2.883,8.318-6.988
			c0.818-4.601-2.255-8.988-6.856-9.797l-109.661-19.352l160.993-40.248c4.535-1.132,7.294-5.725,6.154-10.251
			C497.684,372.07,493.067,369.294,488.565,370.451z M410.494,40.299c46.639,0,84.589,30.358,84.589,67.671
			c0,29.697-23.815,55.643-59.253,64.573c-0.258,0.066-0.487,0.18-0.735,0.266c-0.925-2.373-1.9-4.721-2.916-7.046
			c11.941-10.958,18.719-25.614,18.719-40.875c0-32.646-30.358-59.212-67.671-59.212c-10.954,0-21.841,2.338-31.481,6.766
			c-0.857,0.396-1.588,0.942-2.239,1.555c-2.782-1.578-5.605-3.089-8.467-4.533C356.79,51.348,382.715,40.299,410.494,40.299z
			 M424.281,149.715c-14.146-25.668-33.912-47.821-57.638-64.778c5.313-1.532,10.927-2.344,16.583-2.344
			c27.987,0,50.753,18.975,50.753,42.294C433.979,133.958,430.577,142.541,424.281,149.715z M72.887,171.657
			c-33.619-9.667-55.97-34.918-55.97-63.687c0-37.313,37.949-67.671,84.589-67.671c26.993,0,52.24,10.419,68.096,27.622
			c-3.408,1.642-6.755,3.389-10.049,5.221c-0.378-0.254-0.762-0.504-1.19-0.7c-9.64-4.428-20.528-6.766-31.481-6.766
			c-37.313,0-67.671,26.566-67.671,59.212c0,14.473,6.09,28.4,16.899,39.147C74.986,166.548,73.908,169.088,72.887,171.657z
			 M141.599,84.434c-23.466,16.614-43.098,38.292-57.31,63.427c-5.309-6.778-8.159-14.671-8.159-22.973
			c0-23.32,22.766-42.294,50.753-42.294C131.88,82.594,136.843,83.232,141.599,84.434z M253.766,471.701
			c-16.358,0-30.033-14.584-33.16-33.891c3.521-0.283,6.627-2.734,7.528-6.354c1.14-4.527-1.619-9.12-6.154-10.251l-1.355-0.339
			c3.17-19.239,16.823-33.753,33.142-33.753c16.321,0,29.974,14.514,33.142,33.753l-1.355,0.339
			c-4.535,1.132-7.294,5.725-6.154,10.251c0.9,3.62,4.008,6.072,7.528,6.354C283.799,457.117,270.124,471.701,253.766,471.701z
			 M302.786,414.083c-5.805-25.242-25.577-43.889-49.021-43.889c-23.448,0-43.222,18.651-49.022,43.897
			c-76.13-21.705-128.613-90.788-128.613-170.78c0-26.878,6.034-52.364,16.767-75.225c0.19-0.198,0.407-0.361,0.58-0.582
			c0.96-1.223,1.497-2.629,1.7-4.064c29.296-57.927,89.361-97.764,158.589-97.764c97.946,0,177.636,79.69,177.636,177.636
			C431.401,323.057,378.831,392.36,302.786,414.083z"/>
	</g>
</g>
<g>
	<g>
		<path d="M160.718,167.182c-37.313,0-67.671,34.149-67.671,76.13c0,41.98,30.358,76.13,67.671,76.13s67.671-34.149,67.671-76.13
			C228.389,201.331,198.031,167.182,160.718,167.182z M135.342,201.017c9.326,0,16.918,7.592,16.918,16.918
			c0,9.326-7.591,16.918-16.918,16.918c-9.326,0-16.918-7.591-16.918-16.918C118.424,208.609,126.015,201.017,135.342,201.017z
			 M160.718,302.524c-27.987,0-50.753-26.566-50.753-59.212c0-1.006,0.023-2.003,0.066-2.996
			c6.202,7.007,15.235,11.455,25.31,11.455c18.661,0,33.835-15.175,33.835-33.835c0-14.504-9.184-26.863-22.029-31.669
			c4.323-1.402,8.87-2.167,13.57-2.167c27.987,0,50.753,26.566,50.753,59.212S188.705,302.524,160.718,302.524z"/>
	</g>
</g>
<g>
	<g>
		<path d="M346.813,167.182c-37.313,0-67.671,34.149-67.671,76.13c0,41.98,30.358,76.13,67.671,76.13s67.671-34.149,67.671-76.13
			C414.484,201.331,384.126,167.182,346.813,167.182z M321.436,201.017c9.326,0,16.918,7.592,16.918,16.918
			c0,9.326-7.591,16.918-16.918,16.918c-9.326,0-16.918-7.591-16.918-16.918C304.519,208.609,312.11,201.017,321.436,201.017z
			 M346.813,302.524c-27.987,0-50.753-26.566-50.753-59.212c0-1.006,0.023-2.003,0.066-2.996
			c6.202,7.007,15.235,11.455,25.31,11.455c18.661,0,33.835-15.175,33.835-33.835c0-14.504-9.184-26.863-22.029-31.669
			c4.322-1.402,8.87-2.167,13.57-2.167c27.987,0,50.753,26.566,50.753,59.212S374.8,302.524,346.813,302.524z"/>
	</g>
</g>
<g>
</g>
<g>
</g>
<g>
</g>
<g>
</g>
<g>
</g>
<g>
</g>
<g>
</g>
<g>
</g>
<g>
</g>
<g>
</g>
<g>
</g>
<g>
</g>
<g>
</g>
<g>
</g>
<g>
</g>
</svg>
